<svg version="1.0" xmlns="http://www.w3.org/2000/svg" width="3205.33" height="824" viewBox="0 0 2404 618">
<g fill="#5c5c5c">
  <path d="M395 117.9v11.9l14.8 3.6c8.1 2 16.4 4.1 18.5 4.7l3.7 1v307.6l-18.2 4.4-18.3 4.4-.3 12.3-.3 12.2H519v-24.5l-16-4.4-16-4.4v-58.1c0-60.8.8-77.3 4-89.4 6-21.9 21.1-37.1 42.6-42.7 7.2-1.9 22.2-1.9 28.9-.1 12.9 3.5 21.7 10.5 27.3 21.9 6.9 14.1 8.1 30.5 8.2 110.8v57.7l-15.7 4.3-15.8 4.4-.3 12.3-.3 12.2h124.2l-.3-12.2-.3-12.2-18.2-4.5-18.1-4.5-.5-72.1c-.4-68.3-.5-72.6-2.6-83.4-2.6-13.7-7.8-29.8-12.9-39.5-4.8-9.2-17.3-21.9-25.9-26.5-3.5-1.7-10.7-4.4-16-5.8-13.5-3.5-34.6-3.7-47.3-.4-22.3 5.7-42.6 20.6-56.2 41.4l-4.8 7.2V106h-92v11.9zM1906 118v11.9l3.8 1c2 .6 9.9 2.6 17.5 4.5s14 3.6 14.3 3.8c.2.3.3 25.9.2 57.1l-.3 56.6-6.3-7.9c-11.6-14.7-24.5-22.6-43.2-26.6-9-2-31.3-2.2-41.3-.5-31.4 5.4-56.4 23.8-70.6 51.9-15.9 31.6-21.6 78.5-14.4 118.7 3.5 19.6 12.8 42.4 23.3 57.4 13 18.3 27.8 28.7 50 35.1 9.2 2.7 37 3.9 49.5 2.2 23-3.2 41.9-14.6 55.4-33.4 1.9-2.7 3.5-4.7 3.7-4.5.1.1 1 8.9 2 19.4l1.8 19.3h5.5c3.1 0 20.5-.9 38.6-2 18.2-1.1 34.5-2 36.3-2h3.3l-.3-12.2-.3-12.3-18.2-4.3-18.3-4.4V106h-92v12zm-14.7 129.1c21.9 3.4 36.3 19.1 44.1 47.9 5.4 20.2 6 26.3 6 58 0 28.5-.1 30-2.7 42.5-3.5 16.4-6.9 26.1-12 34.9-9.5 16.4-24.5 24.6-45.2 24.6-9.6 0-16.2-1.6-24.3-6-15.2-8.1-24.2-21.1-29.2-42.3-4.8-20.4-5.5-27.8-5.4-59.2 0-38.9 2.7-57.4 10.8-75 9.2-19.8 31.2-29.5 57.9-25.4zM1029 114.9c-16.5 5.1-25 21.4-21 40.2 2.7 12.5 11.5 20.6 25 22.9 17 2.9 32.2-4.1 38.1-17.5 7.6-17.1-.3-38.3-16.6-44.4-5.8-2.2-20.1-2.8-25.5-1.2zM1656 114.9a30.8 30.8 0 0 0-20 18.7c-4.4 11.9-1.2 29.5 6.7 36.4 8 7 19.5 10 30.9 8 12.1-2.1 19.5-7.3 24-17.2 4.8-10.8 3.8-24.3-2.7-34.1-3.3-4.9-10.3-9.9-16.5-11.6-4.4-1.2-18.6-1.3-22.4-.2zM204.5 131.5c-40.9 5.6-70.3 22.7-94.1 54.7-7.7 10.4-19.1 32.3-23.7 45.8-14 40.5-16.2 94.1-5.6 137 13.1 52.8 43.9 89.9 87.9 105.8 18.7 6.8 34.2 9.2 59 9.2 50.9 0 87.2-15.1 111.4-46.4 13.2-17.1 20.6-33.6 28-62.9l1.4-5.7h-35.3l-2.7 10.4c-10.5 40.9-33.6 62.1-75 68.6-11.8 1.9-38.3.8-47.8-2-17.9-5.2-32.6-15-41.6-28-13.1-18.8-23.2-49.7-27.6-84-1.9-15.3-1.6-52.4.5-65.9 7.4-46.7 23.8-80.4 46.3-95.1 13.1-8.6 27.6-12.4 46.9-12.4 24.2.1 40.1 5.1 56.4 18 16.4 13 25.5 28.7 31.8 54.8l2.8 11.6H362V135h-36l-4.7 14.9-4.7 15-7.1-6.7c-14.3-13.6-28.1-21.1-46.3-25.3-11.5-2.7-44-3.5-58.7-1.4zM802.5 217.5c-27.4 3.9-48.6 13.4-62.4 28-18.5 19.6-16.6 53.6 3.7 62.3 16 6.9 34.6.8 42.6-13.9 2.5-4.5 2.9-6.4 2.9-12.6-.1-8.3-3.3-16.5-8.4-21.1-1.6-1.4-2.9-3.1-2.9-3.8 0-.7 2.2-3.2 4.9-5.6 6.8-6.2 14.2-8.3 28.7-8.3 10.7 0 11.2.1 18.6 3.8 20.4 10 30.8 32.8 34.3 74.9l.7 7.6-5.4 1c-44.7 8.3-54.1 10.5-75.8 17.9-23.5 8-40.4 17.7-51.7 29.7-14.1 14.8-19.5 32-17.3 54.3 1.6 15.8 5.9 25.4 15.9 35.4 12 12 26.6 17.1 49 17 33.8-.2 64.6-16.1 85.5-44.4 3.1-4.3 6.1-7.5 6.5-7.3.4.3 1.1 6.5 1.5 13.8.7 13.8 2.5 23.7 5.1 28.8 6.3 12.3 29.7 12.1 70.2-.6 12.8-4 12.6-3.6 12.1-14.9l-.3-7-13.5-.5c-11.1-.4-14-.8-16.3-2.4-6.9-4.7-7.6-10.6-8.1-71.6-.3-37.4-.8-53.5-2-62-2.1-16.3-5-29.5-8-36.5l-3.6-8.8c-3-7.7-11.8-20.8-18.8-28.1-7.2-7.4-17.8-14.4-27.8-18.4-9.8-3.9-13.3-4.7-26.1-6.7-12-1.8-21.3-1.8-33.8 0zm63.1 136.2c1.5 10.6.9 35.2-.9 42.8-3.8 16.1-10.6 28.4-21.5 38.7-20.2 19-47.4 22.3-60.9 7.5a52.9 52.9 0 0 1-6.2-9.6c-2.4-5.3-2.6-6.5-2.6-20.6.1-14.1.2-15.3 2.7-20.7 9.4-20.2 29.5-30.7 83.3-43.1 5-1.2 5.3-.9 6.1 5zM1283.5 217.5c-13.9 2.6-21.9 7-32.7 17.8-10.7 10.7-19.3 24.4-25.8 41.2-2.7 7-3.6 8.3-4.9 6.9-.9-.8-4.4-19.9-7.2-38.2-.5-3.4-1.6-10.1-2.4-14.9-.8-4.7-1.5-8.7-1.5-8.9 0-.2-17.6-.4-39-.4h-39.1l.3 9.7.3 9.7 17.1 4.2c9.4 2.3 17.7 4.4 18.3 4.8 1.6 1 1.6 196.2 0 197.2-.6.4-8.9 2.5-18.3 4.8l-17.1 4.2-.3 12.2-.3 12.2H1275v-11.9c0-10.5-.2-12-1.7-12.5-1-.3-6.1-1.2-11.3-2.1-29.5-5-37.4-6.5-38.2-7.3-.6-.6-.8-21.6-.5-51.3.5-53.8.6-55.6 6.1-76.8 5.8-22.5 10.7-34.5 18.8-46.5 7.3-10.9 14.3-17 21.3-18.6 4.9-1.1 5.8-.1 4.6 5.1-3.7 15.9 3.6 30.4 17.4 34.5 8.1 2.3 21.5 1.6 27.4-1.4 16.1-8.4 22-34.6 11.9-53.3-8.5-16-27.6-24.3-47.3-20.4zM1445.4 217.5c-26 3.5-43 11.1-56.7 25.2-10 10.2-15.6 21.3-18.2 36.2-1.9 10.7-1.9 16.4.1 27.6 3.1 17.7 13.4 33 29.7 44.3 12.9 8.9 28.8 15.5 66.7 27.7 37.2 12 52.8 27 49 47.2-2.7 14.2-14 23.8-35 29.8-9.3 2.7-37.8 2.8-46.5.1-9.2-2.8-18.6-8.1-23.9-13.5l-4.8-4.9 2.7-2.4c7.8-6.5 12.7-14.8 13.9-23.1 2.6-17.8-13.3-30.4-34.6-27.5-7.5 1-13.2 4.2-18.9 10.6-5.6 6.3-8 12.6-8.6 23.4-1.5 23.2 8.5 40.1 30.9 52.7 17.8 10.1 46.3 14.8 77.8 12.9 35.9-2.2 62.2-12.7 80.7-32.1 12.9-13.6 17.9-27.9 17-48.7-.7-17.8-6.2-29.8-18.5-41.1-14.2-13-30.2-20.3-77.7-35.4-30.8-9.7-43.4-17.4-49.6-30-2.1-4.4-2.4-6.4-2.4-16 0-12.6 1.5-17.2 8.1-24.5 7.6-8.4 18-12 36.9-12.7 16-.6 24.6.8 34.2 5.3 6 2.9 15.3 10.7 15.3 13 0 .7-1.5 2.2-3.4 3.3-7.4 4.6-12.5 14.4-12.6 23.9 0 13.3 8.1 21.7 23.2 24.2 16.2 2.5 29.3-4.4 34.2-18.1 2.5-6.9 2.6-22 .2-30.4-4.2-14.5-15.5-27.4-31.4-35.8-20.1-10.6-50.4-15-77.8-11.2zM2170.3 217.1c-25.5 2.4-43.5 9.2-60.2 22.6-16.9 13.5-29.1 32.2-36.4 55.8-2.3 7.3-3.1 10.7-5.8 24.5-2.2 11.2-3.1 34.8-2 50.2 2.2 29.6 6.8 47.6 16.8 64.6 17 29 42.4 44.4 80.9 48.7 11.5 1.3 16.2 1.4 25.5.5 29.7-2.8 48.2-9.4 67.6-23.9 12.3-9.2 31.3-28.6 31.3-31.9 0-.6-4.8-4.8-10.6-9.3l-10.6-8.2-8.1 8c-10.2 10-16.3 14.3-27 19.3-14.2 6.7-26 9.4-41.2 9.4-11.7.1-13.8-.2-21.1-2.7-22.2-7.6-33.7-20.3-40.9-45.1-3.3-11.6-5.7-28.3-5.3-37.1l.3-7 83.5-.5 83.5-.5.8-9c1.5-17.3-.9-42.4-5.4-57.8-10.4-35.4-37.8-60.6-73.9-68.2-6.5-1.3-27.7-3.6-31.5-3.4-1.1.1-5.7.5-10.2 1zm28.2 32.5c7.1 2.5 11.3 5.1 16.9 10.3 12.3 11.7 17.2 25.2 18.3 50.9.5 12.6.4 15.6-.8 16.3-1.7 1.1-106.9 1.2-108.6.1-2.2-1.4 1.8-26.3 6.5-40.2 3.9-11.7 8.7-19.7 16.7-27.5 7.2-7.1 7.8-7.4 20.5-11.2 6.1-1.8 23.9-1 30.5 1.3zM976 233v11.9l3.8 1c2 .6 10.3 2.7 18.5 4.7l14.7 3.6v192.4l-18.2 4.5-18.3 4.5-.3 12.2-.3 12.2h129.2l-.3-12.2-.3-12.3-18.2-4.4-18.3-4.4V221h-92v12zM1603 233v11.9l3.8 1c2 .6 10.3 2.7 18.5 4.7l14.7 3.6v192.4l-18.2 4.5-18.3 4.5-.3 12.2-.3 12.2h129.2l-.3-12.2-.3-12.3-18.2-4.3-18.3-4.4V221h-92v12z"/>
</g>
</svg>
