<?xml version="1.0" standalone="no"?>
<!DOCTYPE svg PUBLIC "-//W3C//DTD SVG 20010904//EN"
 "http://www.w3.org/TR/2001/REC-SVG-20010904/DTD/svg10.dtd">
<svg version="1.0" xmlns="http://www.w3.org/2000/svg"
 width="2438.000000pt" height="658.000000pt" viewBox="0 0 2438.000000 658.000000"
 preserveAspectRatio="xMidYMid meet">
<g transform="translate(0.000000,658.000000) scale(0.100000,-0.100000)"
fill="#FE4040" stroke="none">
<path d="M2459 6146 c-2 -2 -103 -16 -224 -30 -638 -78 -612 -74 -1255 -181
-151 -26 -335 -56 -408 -68 l-133 -21 -57 -58 c-31 -32 -58 -62 -60 -66 -1 -4
43 -140 99 -302 55 -162 138 -405 184 -540 46 -135 134 -391 195 -570 61 -179
144 -422 185 -540 40 -118 94 -275 119 -348 67 -191 114 -383 126 -514 5 -62
17 -394 25 -738 9 -344 20 -773 25 -954 l10 -330 41 -42 c23 -23 55 -49 73
-58 30 -16 34 -16 131 22 l100 38 6 109 c4 61 9 419 13 797 3 378 10 698 15
711 l9 24 229 -34 c125 -19 338 -49 471 -67 134 -19 248 -38 253 -43 11 -11
36 -180 74 -498 14 -121 48 -382 75 -580 61 -441 78 -563 93 -685 l12 -94 83
-50 84 -50 95 48 95 47 -6 57 c-4 31 -20 179 -36 327 -16 149 -43 410 -60 580
-16 171 -39 402 -51 515 -11 113 -23 238 -26 277 l-6 73 38 16 c21 9 50 16 64
17 25 2 26 0 38 -93 7 -52 19 -174 28 -270 30 -343 37 -415 45 -430 8 -16 101
-50 133 -50 9 0 42 12 73 28 l57 27 -7 145 c-13 311 -26 569 -32 662 l-7 98
29 11 c16 6 124 44 239 84 116 41 314 110 442 154 221 77 263 89 263 75 0 -4
29 -196 64 -428 36 -231 72 -475 81 -541 34 -252 98 -671 106 -691 6 -17 23
-24 95 -37 l88 -16 55 31 c96 55 91 37 65 259 -12 107 -36 298 -53 424 -40
301 -97 754 -111 880 -6 55 -27 224 -46 375 -33 257 -38 279 -68 335 -39 73
-43 75 -291 155 -223 71 -338 101 -495 129 -267 47 -356 55 -638 55 l-273 0
-9 36 c-19 70 -222 1087 -265 1330 -19 102 -59 309 -90 460 -30 151 -67 340
-80 420 -33 189 -34 190 -88 190 -24 0 -46 -2 -48 -4z m-42 -832 c15 -53 85
-363 127 -564 19 -91 40 -191 47 -222 8 -37 10 -61 4 -67 -6 -4 -100 -25 -210
-46 -367 -69 -622 -129 -969 -230 -87 -25 -160 -44 -162 -43 -3 4 -86 237
-211 598 -114 328 -108 309 -96 321 6 6 48 19 94 30 215 49 730 161 878 190
171 33 459 78 476 75 6 -2 15 -20 22 -42z m272 -1251 c10 -20 64 -331 65 -377
1 -29 1 -29 -105 -52 -435 -91 -866 -255 -1013 -385 -40 -35 -53 -36 -66 -6
-36 86 -170 462 -170 477 0 21 60 46 322 135 180 61 630 175 788 200 58 9 112
18 120 19 35 8 50 5 59 -11z"/>
</g>
<g transform="translate(0.000000,658.000000) scale(0.100000,-0.100000)"
fill="#5C5C5C" stroke="none">
<path d="M8618 3945 l3 -105 37 -9 c20 -6 69 -17 107 -26 39 -9 87 -21 108
-26 l37 -10 -2 -1212 -3 -1212 -142 -35 -142 -34 -3 -104 c-2 -57 -1 -106 1
-108 2 -2 235 -4 518 -4 l513 0 0 109 c0 105 -1 109 -22 113 -83 18 -224 61
-230 71 -12 18 -10 944 2 1034 14 106 28 158 61 225 93 186 315 271 533 202
69 -22 150 -95 185 -167 51 -105 56 -169 56 -757 l0 -544 -80 -23 c-44 -13
-100 -29 -125 -36 l-45 -13 0 -104 0 -105 515 0 515 0 0 105 0 104 -95 23
c-52 13 -117 29 -145 36 l-50 12 -6 540 c-7 623 -15 706 -90 894 -105 265
-305 391 -621 391 -195 0 -395 -107 -534 -285 -37 -47 -71 -85 -76 -85 -4 0
-8 281 -8 625 l0 625 -387 0 -388 0 3 -105z"/>
<path d="M20810 3951 c0 -57 4 -103 10 -106 6 -4 68 -21 139 -39 71 -19 134
-37 140 -40 13 -8 16 -876 4 -876 -5 0 -40 35 -80 79 -80 87 -142 127 -260
168 -71 24 -92 27 -228 27 -126 0 -164 -4 -235 -24 -305 -83 -479 -275 -580
-640 -65 -235 -67 -553 -6 -788 96 -366 279 -580 566 -660 98 -28 187 -34 304
-23 242 24 349 72 484 216 40 43 75 75 78 72 3 -2 10 -49 15 -103 6 -55 13
-119 16 -143 l5 -44 141 7 c242 11 541 28 555 32 8 2 12 31 12 97 0 64 -4 98
-12 105 -7 6 -74 26 -148 45 l-135 34 -3 1352 -2 1351 -390 0 -390 0 0 -99z
m-27 -1070 c177 -61 280 -265 317 -624 21 -199 -7 -494 -61 -657 -58 -177
-132 -258 -272 -301 -193 -59 -407 35 -490 214 -26 56 -59 178 -79 297 -8 47
-12 163 -11 315 1 264 15 393 59 523 52 157 127 222 294 256 48 9 187 -4 243
-23z"/>
<path d="M13740 3981 c-78 -25 -148 -90 -171 -157 -7 -22 -13 -73 -13 -114 1
-82 22 -139 72 -192 58 -62 212 -87 317 -52 66 23 139 95 156 154 40 144 -14
284 -132 345 -37 20 -187 30 -229 16z"/>
<path d="M18794 3974 c-58 -21 -123 -80 -145 -132 -30 -69 -26 -193 7 -260 44
-89 124 -132 245 -132 132 0 229 60 269 167 49 132 2 270 -117 340 -36 21 -60
26 -131 29 -61 3 -99 -1 -128 -12z"/>
<path d="M7105 3851 c-275 -29 -493 -129 -675 -311 -274 -272 -417 -714 -397
-1220 24 -586 272 -1013 693 -1194 43 -19 124 -47 179 -62 90 -25 120 -28 311
-32 162 -3 235 0 310 11 408 65 695 306 833 700 25 71 61 203 61 223 0 2 -72
4 -160 4 l-160 0 -6 -27 c-37 -160 -62 -223 -120 -315 -57 -89 -87 -121 -161
-174 -133 -95 -309 -140 -513 -131 -227 10 -392 88 -496 234 -91 127 -162 318
-206 555 -19 105 -22 158 -23 358 0 158 4 258 14 305 59 306 166 544 302 669
229 212 648 205 884 -15 109 -103 190 -255 229 -432 l17 -77 172 2 172 3 0
445 0 445 -160 3 -160 2 -38 -115 c-21 -63 -41 -115 -44 -115 -3 0 -31 23 -62
52 -113 103 -235 167 -368 193 -91 18 -327 26 -428 16z"/>
<path d="M11885 3161 c-189 -31 -370 -108 -468 -200 -175 -162 -165 -447 19
-536 56 -27 163 -25 232 5 72 31 137 104 151 171 17 78 -10 171 -61 207 -71
51 104 152 244 139 155 -14 273 -133 339 -342 20 -63 49 -235 49 -295 l0 -35
-132 -24 c-350 -61 -652 -159 -805 -261 -124 -84 -216 -204 -247 -325 -21 -79
-21 -235 0 -306 51 -171 161 -274 335 -315 122 -29 319 -15 447 30 158 56 340
199 421 329 39 64 48 50 53 -85 7 -156 30 -226 88 -264 35 -23 49 -26 127 -25
48 0 134 9 190 20 95 19 312 77 322 87 8 8 13 113 7 139 -6 24 -9 25 -89 25
-100 0 -150 13 -176 45 -31 40 -40 161 -45 585 -5 477 -16 563 -93 760 -35 91
-121 217 -195 285 -73 68 -203 135 -323 165 -89 23 -305 35 -390 21z m510
-1081 c14 -63 8 -293 -10 -360 -43 -164 -160 -313 -299 -379 -123 -58 -218
-52 -299 20 -73 64 -91 112 -91 244 0 97 3 117 27 168 63 137 212 223 537 308
58 15 110 28 117 28 6 1 14 -12 18 -29z"/>
<path d="M15830 3164 c-188 -36 -322 -157 -438 -396 -37 -76 -70 -138 -73
-138 -11 0 -19 28 -34 129 -9 53 -26 157 -38 231 l-23 135 -332 3 -332 2 0
-74 0 -75 38 -10 c20 -6 85 -22 145 -37 89 -22 108 -30 112 -48 3 -11 4 -363
3 -781 l-3 -760 -145 -35 -145 -36 -3 -107 -3 -107 596 0 596 0 -3 107 -3 107
-190 33 c-104 18 -196 35 -202 38 -10 3 -13 89 -13 383 0 425 6 481 75 707 40
130 78 214 132 287 43 59 120 128 143 128 15 0 17 -8 12 -69 -6 -84 8 -127 55
-176 48 -50 92 -66 189 -73 134 -8 200 30 261 148 25 49 28 65 28 150 0 86 -3
102 -30 153 -54 108 -155 173 -280 181 -39 2 -81 2 -95 0z"/>
<path d="M17085 3161 c-200 -34 -323 -89 -430 -194 -116 -115 -165 -236 -165
-407 0 -149 42 -269 129 -371 99 -114 244 -192 571 -303 241 -82 337 -128 402
-190 51 -49 71 -96 70 -168 -1 -69 -17 -101 -75 -155 -71 -66 -158 -98 -303
-113 -187 -19 -331 19 -424 114 l-44 46 43 41 c81 79 113 195 75 275 -35 73
-151 122 -261 111 -190 -20 -303 -217 -248 -431 65 -248 338 -387 759 -387
249 0 453 44 616 133 96 53 220 174 255 249 92 204 67 407 -69 556 -108 119
-253 189 -656 318 -321 103 -414 185 -414 366 1 98 32 168 100 219 147 109
469 85 594 -45 l35 -36 -25 -20 c-77 -58 -110 -120 -110 -202 0 -133 142 -216
314 -186 85 14 136 52 173 127 24 49 27 67 26 142 -2 240 -183 420 -493 491
-95 22 -360 34 -445 20z"/>
<path d="M22935 3164 c-11 -2 -60 -12 -110 -21 -306 -56 -530 -260 -640 -583
-83 -244 -98 -619 -34 -886 100 -421 409 -648 879 -647 300 2 548 97 762 292
55 50 144 158 137 165 -2 2 -46 38 -98 79 l-95 76 -86 -82 c-133 -126 -281
-197 -455 -216 -344 -40 -557 178 -582 591 l-6 108 669 2 669 3 9 95 c10 119
-6 329 -34 425 -70 243 -208 408 -433 516 -108 52 -236 79 -402 84 -71 2 -139
2 -150 -1z m239 -274 c180 -56 272 -210 283 -472 l6 -128 -426 0 -427 0 6 63
c18 185 71 335 153 435 89 108 252 149 405 102z"/>
<path d="M13300 3025 l0 -105 28 -6 c15 -4 77 -19 138 -35 61 -16 114 -29 118
-29 3 0 5 -339 4 -752 l-3 -753 -140 -36 -140 -36 -3 -106 -3 -107 536 0 535
0 0 105 0 104 -42 12 c-24 6 -88 24 -143 38 l-100 27 -5 889 -5 890 -387 3
-388 2 0 -105z"/>
<path d="M18377 3123 c-4 -3 -7 -48 -7 -100 0 -110 -14 -97 165 -144 66 -17
123 -36 127 -42 4 -7 8 -339 8 -738 0 -565 -3 -729 -12 -742 -8 -10 -67 -29
-148 -50 l-135 -33 0 -105 0 -104 533 -3 533 -2 -3 107 -3 106 -140 36 -140
36 -5 890 -5 890 -381 3 c-209 1 -383 -1 -387 -5z"/>
</g>
</svg>
