<svg xmlns="http://www.w3.org/2000/svg" xmlns:xlink="http://www.w3.org/1999/xlink" width="640" height="640"><defs>
<path 
d="m307.68 95.69.22.02.21.03.2.04.19.05.17.06.17.07.16.09.15.09.15.11.13.12.13.14.12.15.12.16.11.19.11.19.1.22.1.24.09.25.1.27.09.29.08.31.09.33.09.36.09.37.08.4.09.42.09.45.09.47.1.49.1.52.1.55.03.17.03.17.03.18.04.18.03.19.04.2.03.2.04.21.04.21.04.22.04.22.05.22.04.23.04.23.05.24.04.23.05.24.04.25.05.24.05.24.04.25.05.25.05.25.05.25.04.25.05.24.05.25.05.25.05.25.04.24.05.25.05.24.04.24.05.23.05.24.04.23.05.23.04.22.04.22.05.22.1.51.11.54.11.56.11.58.13.61.12.64.13.65.13.67.14.69.14.72.14.73.15.74.14.77.16.77.15.8.16.81.16.82.16.83.16.84.17.86.17.86.17.88.17.88.17.89.17.89.18.9.17.91.18.91.17.91.18.91.18.92.18.92.17.91.18.92.18.91.17.91.18.91.17.9.17.9.18.89.07.38.07.39.07.38.08.4.07.39.08.39.07.39.08.4.07.39.08.4.07.39.08.39.07.39.07.38.08.38.07.38.08.38.07.37.07.37.07.36.07.35.07.35.07.35.06.33.07.33.06.32.07.32.06.3.06.3.06.28.05.28.06.26.05.26.05.24.05.23.04.22.05.21.04.19.04.18.04.17.03.16.04.16.03.17.04.16.03.17.04.16.03.17.04.17.03.16.04.17.03.17.04.16.03.16.03.17.04.16.03.16.03.16.03.16.03.15.03.16.03.15.03.15.03.14.03.14.02.14.03.14.03.14.02.13.03.12.02.12.02.12.02.12.02.11.02.1.02.1.02.1.02.09.01.08.02.08.01.08.01.07.01.09.02.1.02.1.01.11.02.12.03.13.02.14.03.15.02.15.03.16.03.17.04.17.03.19.04.18.03.2.04.2.04.2.04.21.04.21.04.22.05.23.04.22.05.24.04.23.05.24.05.24.05.25.05.25.05.24.05.26.05.25.06.26.05.25.05.26.06.26.05.26.05.26.06.26.05.26.06.26.05.26.05.27.06.27.05.27.05.27.06.28.05.27.06.28.05.27.06.28.05.28.06.28.05.27.06.28.05.27.05.27.06.27.05.27.05.27.05.26.05.26.05.25.05.26.04.24.05.25.04.24.05.23.04.23.04.22.04.21.04.21.03.21.04.19.03.19.03.18.03.17.03.17.03.15.02.15.04.24.05.23.04.24.04.24.05.25.05.26.05.26.05.28.05.28.06.3.06.32.06.33.06.35.07.36.08.39.08.41.08.43.09.45.09.48.1.51.1.53.11.57.12.6.12.63.13.66.14.7.14.74.16.77.16.82.16.85.18.9.19.94.19.99.21 1.03.21 1.09.22 1.13.24 1.18.24 1.24.26 1.29.26 1.34.05.24.05.23.04.24.05.24.04.23.05.24.05.24.04.23.05.24.04.24.05.23.05.23.04.23.09.46.04.23.05.22.04.22.04.22.05.21.04.21.04.2.04.21.03.19.04.19.04.19.03.18.04.18.03.17.03.17.03.16.03.15.03.14.03.14.02.13.03.13.02.12.02.1.02.1.02.1.01.09.02.1.02.11.02.11.02.11.03.13.02.12.03.14.02.13.03.14.03.15.03.15.03.15.03.16.03.16.04.16.03.17.04.17.03.17.04.18.03.17.04.18.03.18.04.19.04.18.04.18.03.19.04.19.04.18.04.19.04.19.03.18.04.19.04.19.04.18.03.19.04.18.04.18.03.18.04.18.04.18.03.19.04.19.04.19.04.19.03.2.04.2.04.2.04.21.04.2.04.21.04.21.04.21.04.21.04.21.04.22.04.21.04.21.04.22.04.21.04.21.04.21.04.21.04.2.04.21.04.2.03.2.04.2.03.19.04.19.03.19.04.19.03.18.03.17.04.17.03.17.03.16.02.16.03.15.03.15.02.14.03.14.02.15.03.15.02.15.03.16.02.15.03.16.03.15.03.16.03.16.03.16.03.15.02.16.03.16.03.16.03.15.03.16.03.15.03.16.03.15.03.15.03.15.03.15.03.14.03.14.03.14.03.14.03.14.02.13.03.12.03.13.02.12.03.12.02.11.02.11.03.1.02.1.02.1.02.09.04.17.04.18.04.18.04.2.05.2.04.21.05.22.05.22.05.23.05.24.05.25.05.26.06.26.05.27.06.28.05.28.06.29.06.3.06.31.06.31.06.31.06.33.06.33.07.33.06.35.07.34.06.36.07.36.07.36.07.37.06.38.07.38.07.39.08.39.07.4.07.4.07.41.07.42.08.41.07.42.07.37.08.41.08.46.1.5.1.53.11.57.12.61.13.64.13.66.14.7.14.72.15.74.15.76.16.78.16.8.16.8.17.82.17.83.17.84.17.83.18.84.17.84.17.84.17.83.18.82.16.82.17.8.17.79.16.77.15.75.16.73.15.71.14.68.14.65.13.62.13.59.12.55.11.51.1.48.1.43.02.11.03.11.02.11.03.11.03.11.02.11.03.12.03.11.02.11.03.11.02.12.03.11.03.11.02.11.03.12.02.11.03.11.02.11.03.1.02.11.02.11.03.1.02.1.02.1.02.1.02.1.02.09.02.09.02.09.02.09.02.08.01.09.02.07.01.08.02.07.01.07.02.07.01.06.01.06.01.05.01.06.01.06.01.06.02.07.01.07.01.08.02.08.02.08.01.08.02.09.02.09.02.09.02.1.02.1.02.1.02.1.02.11.02.1.03.11.02.11.02.11.03.12.02.11.03.12.02.11.03.12.02.12.03.12.02.12.03.12.03.12.02.12.03.12.03.12.02.12.03.12.03.12.02.12.03.11.02.12.03.12.02.12.02.12.03.13.03.13.02.13.03.14.03.13.02.14.03.14.03.14.03.14.03.15.03.14.03.15.03.14.03.15.03.14.03.15.03.15.03.14.03.15.03.15.03.14.03.14.03.15.02.14.03.14.03.14.03.13.02.14.03.13.03.13.02.13.02.12.03.12.02.12.02.12.02.11.02.11.02.11.02.11.02.11.03.11.02.12.02.12.02.11.03.12.02.12.02.13.03.12.02.12.03.13.02.12.03.12.02.13.03.12.03.13.02.12.03.12.02.13.03.12.03.12.02.12.03.12.02.12.03.11.02.12.03.11.02.11.03.11.02.1.02.11.03.1.02.1.02.09.02.09.02.09.02.09.02.08.02.08.02.09.02.09.02.09.02.09.02.1.03.09.02.1.02.1.02.1.02.11.02.1.02.11.03.11.02.11.02.11.02.11.02.11.02.11.02.11.02.11.03.11.02.12.02.11.02.11.02.11.02.11.01.11.02.11.02.1.02.11.02.1.01.11.02.1.02.1.01.1.02.09.01.09.02.1.01.08.05.35.05.34.06.33.05.33.05.32.06.31.05.3.05.3.06.29.05.28.05.27.06.27.05.26.06.25.05.24.05.24.06.23.05.22.06.21.05.2.05.2.06.18.05.18.05.17.05.16.06.16.05.14.05.13.05.13.05.12.05.11.05.1.05.09.05.08.05.07.05.06.04.05.05.05.05.03.04.03.06.01.1.01.13.01H352.42l.25-.01.28-.01.29-.02.31-.01.33-.02.34-.02.36-.02.36-.02.37-.03.38-.03.39-.03.38-.03.39-.03.39-.03.39-.03.38-.04.38-.03.37-.03.37-.04.35-.04.34-.03.32-.04.31-.03.3-.04.27-.03.26-.04.23-.03.2-.03.18-.04.16-.03.12-.03.09-.02.06-.03.1-.03.19-.03.28-.03.36-.02.45-.02.52-.02.59-.02.65-.01.72-.02.78-.01.82-.01h.88l.92-.01h5.08l1.08.01 1.09.01 1.1.01 1.1.01 1.1.01 1.1.02 1.07.01 1.07.02 1.04.02 1.02.02.98.02.96.03.91.02.87.03.82.03.77.02.71.03.64.03.58.04.51.03.44.03.35.04 1.49.16 1.45.16 1.41.15 1.37.15 1.32.14 1.29.15 1.24.14 1.21.14 1.18.13 1.13.14 1.11.13 1.07.13 1.04.13 1.01.12.98.13.95.12.92.12.9.12.87.12.84.12.83.12.8.11.78.12.76.12.74.11.72.12.71.12.69.12.67.11.67.12.65.12.64.12.63.13.62.12.61.12.6.13.6.13.59.13.59.13.59.14.07.01.08.02.08.02.08.02.09.02.09.01.09.02.1.02.1.03.1.02.1.02.1.02.11.02.11.02.11.03.11.02.11.02.12.03.11.02.12.02.12.03.12.02.12.02.12.03.12.02.12.02.12.03.12.02.12.02.12.03.11.02.12.02.12.02.12.03.11.02.12.02.11.02.11.02.11.02.11.02.11.02.11.02.11.02.11.02.11.02.11.03.12.02.11.02.12.03.11.02.12.03.12.02.11.02.12.03.12.02.11.03.12.02.11.03.11.02.12.03.11.03.11.02.11.02.1.03.11.02.1.03.1.02.1.03.1.02.09.02.1.02.09.02.08.03.09.02.08.02.07.02.08.02.07.01.07.02.06.02.06.01.07.02.08.02.07.02.08.02.09.02.09.02.09.03.1.02.09.02.11.03.1.02.11.03.11.02.11.03.12.03.12.03.12.02.12.03.12.03.12.03.13.03.13.03.13.03.12.03.13.03.53.12.13.04.13.03.13.03.13.03.13.03.13.03.13.03.12.03.13.03.12.03.39.08.39.09.38.09.38.09.38.09.38.09.38.09.37.09.38.09.37.09.37.09.37.09.38.09.37.1.37.09.38.1.37.1.37.09.38.1.37.1.38.1.38.11.38.1.38.1.38.11.39.11.39.11.39.11.39.11.4.11.4.12.4.11.41.12.41.12.41.12.42.13.42.12.42.13.43.13.44.13.23.07.24.08.25.07.25.08.25.08.26.07.26.08.26.09.26.08.27.08.27.08.27.08.27.09.27.08.27.09.27.08.28.08.27.09.27.08.27.09.27.08.27.08.26.08.26.08.26.09.26.08.25.07.25.08.96.3.23.07.22.07.22.06.21.07.2.06.2.06.19.06.18.06.18.05.18.05.19.06.2.06.19.06.2.06.2.06.21.06.2.07.21.06.22.07.21.06.21.07.22.07.22.07.21.07.22.07.22.07.22.07.21.07.22.07.22.07.21.07.21.07.21.07.21.07.21.07.21.07.2.06.2.07.19.07.2.06.18.07.19.06.18.06.18.07.17.06.16.06.16.05.16.06.15.05.17.06.16.05.18.06.18.07.18.06.19.06.19.07.2.07.21.07.2.07.21.08.22.07.21.08.22.07.22.08.23.08.22.08.23.08.23.08.23.08.23.08.23.08.23.08.23.08.23.08.23.08.23.08.23.08.22.08.23.08.22.08.22.07.22.08.22.08.21.07.21.07.2.08.2.07.2.06.19.07.2.07.2.07.19.07.2.08.19.07.19.07.19.08.19.07.19.08.18.07.18.08.18.07.18.08.18.07.17.08.17.07.16.08.16.07.16.07.16.08.15.07.14.07.14.07.14.07.13.06.13.07.13.07.11.06.11.06.11.07.1.05.1.06.09.06.08.05.08.05.07.05.06.05.05.05.05.04.23.23.23.25.23.26.22.26.23.28.23.29.23.3.22.3.23.31.22.33.22.32.22.34.22.34.21.35.21.35.21.35.2.36.2.36.19.37.19.36.19.37.18.37.17.36.17.37.17.37.15.37.15.36.15.36.13.36.13.35.12.35.11.35.11.34.09.33.09.33.08.32.07.31.05.31.05.29.04.29.01.11.01.11.01.12.02.13.01.13.01.14.02.15.02.15.01.15.02.16.02.17.02.17.02.17.02.18.02.18.02.19.02.18.02.19.03.2.02.19.02.2.03.2.02.21.03.2.02.21.03.2.02.21.03.21.02.2.03.21.03.21.02.21.03.21.03.2.02.21.03.2.02.2.03.2.03.2.02.2.03.2.03.2.02.22.03.22.03.23.03.23.03.23.03.25.03.24.04.25.03.26.03.26.03.26.04.26.03.27.04.27.03.27.04.27.03.27.07.55.03.28.04.28.03.27.04.28.03.27.04.27.03.27.04.27.03.27.03.26.04.27.03.25.03.26.04.25.03.25.03.24.03.23.03.24.03.22.02.23.03.22.03.24.03.23.03.23.02.24.03.24.03.23.03.24.03.24.03.24.03.24.03.24.03.24.03.24.04.24.03.24.03.23.03.23.03.23.03.23.03.23.03.22.02.22.03.21.03.21.03.21.02.2.03.2.03.19.02.19.03.18.02.18.02.17.02.16.02.16.02.15.02.14.02.13.02.13.01.13.02.14.02.15.02.15.02.16.02.17.03.17.02.18.02.19.03.19.02.2.03.2.03.21.03.21.02.22.03.22.03.22.03.23.03.23.03.23.03.24.03.24.03.24.03.24.03.24.03.25.03.24.03.25.03.25.03.24.03.25.03.24.03.25.03.24.03.25.03.24.03.24.02.23.03.24.03.23.03.23.03.25.03.24.03.26.03.25.04.27.03.26.03.27.04.27.03.28.04.28.03.28.04.28.03.29.04.28.04.29.03.29.04.29.04.29.03.28.04.29.04.29.03.28.04.28.03.28.04.28.03.28.04.27.03.27.04.26.03.26.06.51.12.95.06.44.03.21.08.68.08.65.08.63.08.61.07.58.07.56.07.55.07.52.06.5.06.49.06.47.06.45.05.44.05.43.06.41.05.41.04.39.05.38.05.37.04.36.05.36.04.35.04.35.04.34.05.35.04.33.04.34.04.34.04.34.04.34.05.34.04.35.04.35.05.36.04.37.05.37.04.38.05.39.05.41.05.41.03.24.03.24.03.25.03.25.04.26.03.26.03.27.04.27.03.27.04.27.03.28.04.28.03.29.04.28.03.29.04.29.04.28.03.29.04.29.04.29.03.28.04.29.04.28.03.29.04.28.03.28.04.27.03.27.04.27.03.27.03.26.07.51.12.95.05.43.03.21.09.69.08.66.08.63.07.61.08.59.07.57.07.54.06.53.06.5.07.49.05.47.06.46.06.44.05.42.05.42.05.4.05.39.05.38.04.37.05.36.04.36.04.35.05.34.04.34.04.34.04.34.04.33.04.34.05.34.04.34.04.34.04.34.05.35.04.36.04.36.05.38.05.38.05.39.04.4.06.42.03.23.03.24.03.25.03.25.06.51.03.26.04.27.03.26.03.27.04.27.03.28.04.27.03.28.04.27.03.28.04.28.03.27.04.28.03.28.03.27.04.27.03.28.04.27.03.26.04.27.03.26.03.26.04.25.03.25.03.24.03.25.03.23.03.23.03.23.03.21.03.22.03.2.03.2.02.19.02.19.03.2.02.2.03.2.02.21.03.21.03.22.02.22.03.22.03.22.03.23.03.23.03.23.03.23.03.23.03.24.03.23.03.24.03.23.03.24.03.23.03.24.03.23.03.23.03.23.02.23.03.22.03.23.03.22.03.22.02.21.03.21.02.21.03.2.02.2.03.19.02.19.02.18.02.18.02.17.02.17.02.17.02.18.02.18.03.18.02.19.02.19.02.19.03.19.02.19.03.19.02.2.02.19.03.2.02.2.03.19.02.2.03.2.03.19.02.2.03.19.02.19.03.2.02.18.02.19.03.19.02.18.03.18.02.17.02.17.02.17.03.17.02.16.02.16.06.44.01.14.02.13.02.12.02.13.02.14.02.13.02.14.02.15.02.15.02.15.02.15.02.16.02.16.03.16.02.17.02.16.02.17.02.17.03.17.02.18.02.17.02.18.02.17.03.18.02.17.02.18.02.18.02.17.02.18.02.17.02.17.02.17.03.17.02.17.01.17.02.16.02.17.02.16.02.15.02.16.01.15.02.15.02.14.01.15.02.15.02.16.02.16.02.18.02.17.02.19.03.18.02.2.02.2.03.2.02.2.03.21.02.22.03.21.03.22.02.22.03.23.03.22.03.23.03.23.02.23.03.24.03.23.03.23.03.24.03.23.03.23.03.23.03.23.03.23.02.23.03.23.03.22.03.23.03.22.02.21.03.21.03.21.02.21.03.21.03.24.03.24.04.27.03.28.04.3.04.31.04.33.05.34.04.36.05.37.05.38.05.39.05.4.06.42.05.42.06.44.05.44.06.45.06.47.06.46.06.48.06.48.07.48.06.49.07.5.06.5.07.5.06.51.07.51.06.51.07.51.07.51.06.51.07.52.06.51.07.51.07.5.06.51.07.5.06.5.06.52.07.52.07.54.06.55.07.55.08.57.07.57.07.58.07.58.08.59.08.59.07.6.08.59.08.61.07.6.08.6.08.61.08.6.07.6.08.6.08.6.08.59.07.59.08.58.07.58.08.57.07.57.07.55.08.55.07.54.07.53.06.52.07.51.07.49.06.48.06.47.06.45.06.44.06.42.06.53.07.51.06.49.06.48.06.47.05.45.05.44.05.42.05.41.05.4.04.38.04.37.04.36.03.34.04.33.03.32.03.31.02.29.03.28.02.27.02.25.02.24.01.24.02.22.01.2.01.2v.18l.01.18v.45l-.01.13v.12l-.01.11-.01.09-.02.09-.01.08-.02.06-.02.06-.02.05-.02.03-.03.04-.04.05-.05.05-.06.05-.07.06-.07.07-.09.07-.09.07-.1.08-.11.08-.11.08-.13.09-.13.09-.13.1-.15.1-.15.1-.15.11-.17.11-.16.11-.18.11-.18.12-.18.12-.19.12-.19.12-.2.13-.2.12-.21.13-.21.13-.22.13-.21.14-.22.13-.23.14-.22.13-.23.14-.24.14-.23.14-.23.14-.24.13-.24.14-5.83 3.41-4.45-.73-.18-.03-.19-.03-.19-.04-.19-.03-.19-.03-.2-.04-.19-.03-.2-.03-.19-.03-.2-.04-.2-.03-.19-.03-.2-.03-.19-.04-.2-.03-.19-.03-.19-.03-.19-.03-.19-.03-.19-.03-.18-.03-.18-.03-.18-.03-.18-.03-.17-.03-.17-.02-.33-.06-.16-.02-.15-.03-.15-.02-.15-.02-.14-.03-.14-.02-.13-.02-.12-.02-.12-.02-.11-.02-.11-.02-.1-.01-.23-.04-.21-.04-.21-.03-.21-.04-.19-.03-.19-.04-.18-.03-.18-.03-.16-.03-.16-.03-.16-.03-.15-.03-.14-.03-.14-.03-.13-.02-.12-.03-.12-.03-.12-.02-.11-.03-.11-.03-.1-.02-.1-.03-.09-.02-.09-.03-.08-.03-.08-.02-.08-.03-.08-.02-.07-.03-.07-.03-.06-.02-.07-.03-.06-.03-.05-.03-.06-.02-.06-.03-.05-.03-.05-.03-.05-.04-.05-.03-.04-.03-.04-.06-.04-.09-.05-.11-.04-.13-.06-.16-.05-.19-.06-.21-.05-.23-.07-.25-.06-.28-.07-.3-.07-.33-.07-.34-.07-.37-.08-.4-.08-.41-.08-.44-.08-.46-.09-.48-.08-.5-.09-.52-.1-.54-.09-.57-.1-.58-.09-.61-.1-.62-.11-.65-.1-.66-.11-.69-.1-.7-.11-.72-.11-.75-.12-.76-.11-.78-.12-.79-.12-.82-.11-.83-.13-.85-.12-.87-.02-.21-.03-.21-.03-.21-.03-.21-.02-.21-.03-.21-.03-.22-.03-.22-.03-.21-.03-.22-.03-.22-.03-.22-.03-.21-.03-.22-.03-.21-.04-.22-.03-.21-.03-.21-.03-.21-.03-.21-.03-.2-.03-.2-.02-.2-.03-.2-.03-.19-.03-.19-.03-.18-.02-.18-.03-.18-.03-.17-.02-.17-.03-.16-.02-.15-.02-.15-.02-.15-.02-.13-.02-.14-.02-.12-.04-.23-.01-.11-.02-.11-.02-.11-.01-.11-.02-.12-.02-.12-.02-.11-.02-.12-.01-.12-.02-.13-.02-.12-.02-.12-.02-.13-.01-.12-.02-.13-.02-.12-.02-.12-.02-.13-.02-.12-.01-.13-.02-.12-.02-.12-.02-.12-.01-.12-.02-.12-.02-.12-.01-.11-.02-.12-.01-.11-.02-.11-.01-.11-.02-.1-.01-.11-.02-.1-.01-.1-.01-.09-.01-.09-.01-.09-.02-.09-.02-.17-.01-.08-.01-.09-.01-.09-.01-.1-.01-.1-.02-.1-.01-.1-.02-.11-.01-.11-.02-.11-.01-.11-.02-.11-.01-.12-.02-.12-.02-.11-.01-.12-.02-.13-.02-.12-.02-.12-.01-.12-.02-.13-.02-.12-.02-.13-.02-.12-.02-.12-.01-.13-.02-.12-.02-.13-.02-.12-.02-.12-.02-.12-.01-.12-.02-.12-.02-.12-.02-.11-.01-.12-.02-.11-.02-.11-.01-.11-.09-.55-.09-.59-.1-.63-.1-.66-.11-.69-.11-.71-.11-.75-.12-.76-.12-.79-.12-.81-.13-.82-.12-.84-.13-.86-.13-.86-.13-.87-.14-.87-.13-.88-.13-.88-.13-.88-.13-.88-.13-.87-.13-.86-.13-.85-.12-.84-.12-.83-.12-.81-.12-.79-.11-.77-.11-.74-.11-.72-.1-.69-.09-.66-.09-.63-.09-.59-.08-.56-.07-.51-.07-.48-.06-.43-.05-.38-.05-.34-.07-.49-.08-.56-.08-.62-.1-.69-.11-.74-.11-.79-.12-.85-.13-.89-.14-.94-.14-.98-.15-1.01-.15-1.04-.16-1.08-.16-1.09-.16-1.13-.17-1.14-.17-1.15-.18-1.17-.17-1.17-.18-1.18-.17-1.18-.18-1.18-.17-1.17-.18-1.16-.17-1.14-.17-1.14-.17-1.11-.16-1.08-.16-1.06-.16-1.03-.15-1-.14-.95-.14-.92-.13-.87-.13-.82-.12-.77-.11-.71-.1-.66-.09-.59-.08-.53-.02-.12-.02-.12-.02-.13-.03-.13-.02-.14-.02-.13-.02-.15-.02-.14-.03-.15-.02-.15-.02-.16-.03-.16-.02-.16-.02-.16-.03-.16-.02-.17-.02-.16-.03-.17-.02-.17-.03-.17-.02-.17-.03-.17-.02-.17-.02-.17-.03-.17-.02-.17-.03-.17-.02-.17-.02-.17-.03-.17-.02-.16-.02-.17-.02-.16-.03-.16-.02-.16-.02-.15-.02-.16-.02-.15-.02-.14-.02-.15-.07-.51-.06-.5-.07-.49-.06-.46-.06-.45-.05-.44-.06-.43-.06-.41-.05-.4-.05-.39-.05-.37-.05-.37-.05-.36-.05-.36-.05-.34-.05-.34-.05-.34-.04-.33-.05-.32-.04-.32-.05-.32-.05-.32-.04-.32-.05-.31-.05-.32-.04-.32-.05-.32-.05-.33-.05-.32-.05-.34-.05-.33-.05-.35-.06-.35-.05-.36-.05-.37-.06-.37-.06-.39-.06-.4-.06-.4-.07-.43-.11-.71-.1-.7-.11-.7-.11-.68-.1-.68-.1-.66-.1-.66-.1-.64-.1-.64-.09-.62-.09-.61-.09-.59-.09-.59-.09-.56-.08-.56-.08-.54-.08-.52-.08-.51-.07-.5-.07-.47-.07-.47-.07-.44-.06-.42-.06-.41-.05-.39-.06-.37-.05-.35-.05-.32-.04-.31-.04-.29-.04-.27-.03-.24-.03-.22-.02-.2-.03-.18-.01-.15-.02-.12-.01-.11-.01-.07v-.13l-.01-.02v-.02l-.01-.03-.01-.02v-.03l-.01-.03-.01-.02-.01-.03-.01-.03-.01-.03-.02-.03-.01-.03-.01-.03-.02-.03-.01-.04-.01-.03-.02-.03-.02-.04-.01-.03-.02-.04-.02-.03-.02-.03-.02-.04-.01-.03-.02-.04-.02-.03-.02-.04-.02-.03-.03-.04-.02-.03-.02-.04-.02-.03-.02-.04-.02-.03-.03-.03-.02-.04-.04-.05-.03-.05-.04-.05-.04-.04-.03-.04-.04-.04-.03-.04-.04-.03-.04-.03-.04-.03-.04-.02-.04-.02-.04-.02-.05-.01-.04-.01-.05-.01-.06-.01h-.11l-.07.01-.07.01-.07.01-.07.01-.08.02-.09.02-.09.03-.1.02-.1.04-.11.03-.12.04-.12.04-.13.04-.13.05-.14.05-.16.06-.15.06-.17.06-.18.07-.18.06-.19.08-.21.07-.2.08-.21.08-.21.08-.21.08-.21.07-.21.08-.21.08-.22.08-.22.08-.23.08-.22.08-.23.08-.23.09-.24.08-.24.09-.24.08-.25.09-.26.09-.25.09-.27.09-.27.09-.27.1-.28.09-.29.1-.29.1-.3.1-.3.11-.31.1-.32.11-.32.11-.34.11-.34.12-.35.12-.35.12-.37.12-.37.13-.38.12-.39.14-.4.13-.11.04-.12.04-.12.04-.12.04-.13.04-.14.05-.14.05-.14.05-.14.05-.15.05-.16.05-.15.06-.16.05-.17.06-.16.06-.17.06-.17.06-.17.06-.17.06-.18.06-.17.06-.18.07-.18.06-.18.06-.18.07-.18.06-.18.07-.18.06-.18.07-.18.06-.18.06-.18.07-.17.06-.18.06-.17.07-.17.06-.17.06-.17.06-.17.06-.16.06-.16.06-.16.06-.16.06-.17.06-.16.06-.17.06-.17.06-.17.06-.16.06-.17.06-.17.06-.17.06-.17.06-.16.06-.17.06-.17.06-.16.06-.16.06-.16.06-.16.06-.16.05-.16.06-.15.05-.15.06-.15.05-.14.05-.15.05-.13.05-.14.05-.13.04-.13.05-.12.04-.12.04-.12.04-.11.03-.1.04-.1.03-.1.03-.09.03-.08.03-.19.06-.21.07-.23.08-.25.08-.26.09-.28.1-.3.1-.32.1-.33.12-.34.12-.36.12-.38.13-.39.14-.4.13-.41.15-.42.15-.44.15-.45.16-.45.16-.47.16-.48.17-.48.17-.5.17-.5.18-.51.18-.51.18-.52.19-.53.18-.53.19-.54.19-.54.19-.55.2-.54.19-.55.2-.56.19-.55.2-.55.2-.56.2-.55.19-.56.2-.23.08-.24.09-.23.08-.25.09-.24.08-.25.09-.25.09-.26.09-.25.09-.26.09-.25.09-.26.09-.26.09-.26.09-.26.09-.26.09-.25.09-.26.09-.25.09-.26.09-.25.09-.25.08-.25.09-.24.08-.24.09-.24.08-.23.08-.23.08-.23.08-.22.08-.21.07-.21.07-.2.07-.2.07-.2.07-.18.06-.18.06-.17.06-.16.06-.16.05-.16.05-.16.05-.18.06-.18.06-.19.06-.2.07-.2.07-.21.07-.22.07-.22.08-.23.08-.24.08-.24.08-.24.08-.25.09-.26.09-.26.09-.26.09-.26.09-.27.09-.27.1-.28.09-.27.1-.28.09-.28.1-.28.1-.28.1-.28.1-.28.1-.28.1-.28.1-.28.1-.28.1-.27.1-.28.09-.27.1-.27.1-.27.1-.26.09-.26.1-.26.09-.27.09-.27.09-.27.1-.27.09-.27.1-.28.1-.28.09-.28.1-.28.1-.28.1-.29.09-.28.1-.28.1-.28.1-.28.09-.28.1-.28.1-.27.09-.27.1-.27.09-.27.09-.26.09-.26.09-.26.09-.25.09-.25.08-.24.09-.24.08-.23.08-.22.08-.22.07-.21.07-.21.07-.2.07-.19.07-.18.06-.17.06-.17.06-.16.05-.15.05-.15.06-.16.05-.16.05-.16.06-.16.06-.16.05-.17.06-.16.06-.16.06-.17.05-.16.06-.16.06-.17.06-.16.06-.16.06-.16.06-.16.06-.16.06-.16.05-.15.06-.16.06-.15.06-.15.05-.14.06-.15.06-.14.05-.14.05-.13.06-.13.05-.13.05-.13.05-.12.05-.11.05-.11.05-.11.04-.1.04-.1.05-.09.04-.09.04-.14.06-.14.06-.13.05-.13.06-.12.05-.11.05-.11.05-.1.04-.09.05-.09.04-.08.05-.08.04-.07.04-.07.05-.06.04-.05.04-.05.05-.05.04-.04.04-.04.05-.04.04-.03.05-.02.05-.03.05-.02.05-.01.05-.02.06-.01.06v.06l-.01.06v.13l.01.08v.07l.01.08.01.08.01.09.01.09.02.09.01.1.01.06.01.06.02.08.01.08.01.09.01.1.01.11.02.11.01.12.01.12.01.13.02.14.01.14.02.15.01.15.02.16.01.17.01.17.02.17.01.18.02.18.01.18.02.19.01.19.02.19.01.2.01.2.02.2.01.21.01.21.02.2.01.21.01.21.02.22.01.21.01.21.01.22.01.21.01.22.01.21.01.22.01.23.01.23.02.25.01.26.01.26.01.27.02.28.01.28.02.29.01.3.02.3.02.31.01.31.02.32.02.32.01.33.02.32.02.34.02.33.02.33.02.34.02.34.02.34.01.34.02.34.02.34.02.33.02.34.02.34.02.33.02.33.02.33.02.32.02.33.02.31.02.32.02.31.02.3.02.3.02.3.02.31.01.33.02.34.02.36.02.36.02.38.02.39.02.39.02.41.02.41.03.43.02.43.02.44.02.44.03.45.02.45.02.46.03.47.02.47.02.47.03.47.02.48.02.47.03.48.02.48.02.48.03.47.02.48.02.47.03.47.02.47.02.46.02.46.02.46.03.45.02.44.02.44.02.43.02.42.03.71.03.72.02.71.03.71.04.71.03.71.03.71.03.71.03.72.03.71.03.72.04.72.03.73.04.73.03.73.04.74.03.74.04.75.04.76.04.76.03.77.04.78.05.79.04.79.04.81.04.81.05.83.04.83.05.85.05.86.05.87.05.88.05.9.05.91.06.92.05.94.06.95.06.97.06.99.06 1 .02.42.03.41.02.38.02.36.02.34.01.33.02.31.01.29.02.27v.26l.01.24.01.23v.77l-.01.16v.15l-.01.15-.02.13-.01.12-.02.11-.02.11-.02.1-.03.09-.03.09-.03.08-.03.07-.04.08-.04.06-.04.07-.05.06-.05.06-.05.06-.05.06-.06.06-.07.06-.06.07-.07.06-.07.07-.13.1-.15.12-.18.12-.19.13-.21.14-.23.15-.25.15-.26.16-.27.16-.29.17-.3.17-.31.17-.32.18-.33.18-.33.18-.34.18-.34.18-.35.18-.34.18-.35.17-.35.18-.34.17-.34.17-.34.16-.33.16-.32.15-.32.15-.3.14-.3.13-.28.12-.27.12-.26.1-.24.1-.22.08-.2.07-.19.07-.16.05-.14.03-.12.02-.09.01-.15-.01-.17-.02-.2-.03-.23-.04-.25-.06-.27-.06-.29-.07-.32-.09-.33-.09-.34-.1-.36-.11-.37-.11-.39-.12-.39-.13-.4-.13-.4-.14-.41-.14-.41-.14-.41-.15-.42-.14-.4-.15-.41-.15-.4-.15-.39-.15-.38-.15-.37-.15-.36-.14-.35-.14-.33-.14-.31-.13-.29-.13-.27-.13-.25-.12-.23-.11-.2-.1-.17-.1-.15-.09-.11-.08-.08-.07-.05-.06-.01-.04-.02-.06-.02-.08-.02-.1-.03-.12-.02-.14-.03-.15-.03-.17-.03-.19-.03-.2-.03-.22-.03-.23-.04-.25-.03-.26-.04-.28-.04-.29-.04-.3-.03-.32-.04-.33-.05-.34-.04-.36-.04-.36-.04-.37-.05-.39-.04-.4-.04-.4-.05-.41-.05-.43-.04-.43-.05-.44-.04-.44-.05-.45-.04-.46-.05-.47-.05-.47-.04-.48-.05-.48-.05-.48-.04-.49-.05-.5-.14-1.62-.15-1.58-.13-1.51-.14-1.47-.12-1.42-.13-1.37-.12-1.33-.12-1.28-.11-1.25-.12-1.21-.11-1.18-.1-1.14-.11-1.11-.1-1.09-.1-1.06-.1-1.04-.1-1.02-.1-1-.1-.98-.1-.97-.09-.96-.1-.95-.1-.95-.1-.94-.1-.94-.1-.94-.1-.94-.1-.95-.1-.96-.11-.96-.11-.98-.11-1-.11-1.01-.12-1.03-.12-1.05-.13-1.08-.12-1.1-.14-1.13-.13-1.16-.14-1.2-.02-.15-.01-.14-.02-.15-.02-.16-.02-.16-.01-.16-.02-.16-.02-.16-.02-.17-.02-.17-.01-.17-.02-.17-.02-.17-.02-.18-.02-.17-.01-.18-.02-.17-.02-.18-.02-.18-.02-.17-.01-.18-.02-.17-.02-.18-.02-.17-.01-.17-.02-.17-.02-.17-.01-.17-.02-.16-.01-.16-.02-.16-.01-.16-.02-.15-.01-.16-.01-.14-.01-.15-.02-.14-.01-.14-.01-.13-.01-.13-.01-.12-.01-.12-.01-.13-.01-.12-.01-.12-.02-.12-.01-.12-.02-.11-.01-.12-.01-.11-.02-.12-.02-.11-.01-.11-.02-.11-.02-.1-.01-.11-.02-.1-.02-.1-.02-.1-.02-.09-.01-.1-.02-.09-.02-.08-.02-.09-.02-.08-.02-.08-.02-.07-.02-.07-.02-.07-.02-.06-.02-.06-.02-.06-.02-.05-.02-.05-.02-.05-.02-.04-.02-.03-.02-.03-.02-.03-.02-.02-.03-.03-.04-.03-.04-.03-.05-.02-.05-.02-.05-.02-.06-.01-.06-.01-.07-.01H361.51l-.09.01-.1.01-.1.02-.11.01-.12.02-.12.03-.14.03-.14.03-.15.04-.15.04-.17.04-.17.05-.18.06-.2.05-.2.07-.21.06-.22.07-.23.08-.25.08-.25.08-.27.09-.27.1-.29.09-.3.11-.31.11-.33.11-.33.12-.35.12-.12.04-.12.05-.11.04-.11.04-.12.05-.11.04-.11.04-.11.04-.11.05-.11.04-.1.04-.11.05-.1.04-.1.04-.1.04-.09.04-.1.04-.09.04-.09.04-.09.04-.08.04-.08.04-.08.04-.08.03-.07.04-.07.03-.07.04-.06.03-.06.03-.06.03-.05.03-.05.03-.05.03-.04.02-.03.03-.04.02-.03.02-.02.02-.02.02-.02.02-.02.03-.02.04-.03.04-.02.05-.01.05-.02.05-.02.06-.01.07-.01.07-.01.08-.01.09v.2l-.01.12v.12l.01.14v.15l.01.16.01.17.01.18.01.2.02.22.01.23.02.24.03.27.02.27.03.3.03.31.03.34.03.35.04.37.04.39.04.42.05.43.04.46.05.48.05.51.06.53.06.55.06.58.02.18.02.19.02.21.03.23.02.24.03.26.03.27.03.29.03.3.03.31.04.32.03.34.04.34.03.36.04.37.04.38.04.39.04.4.04.4.04.41.05.42.04.43.04.44.05.44.04.44.05.45.04.45.05.46.04.46.05.47.05.46.04.47.05.47.04.47.05.47.05.47.04.47.05.47.05.47.04.46.09.95.09.92.09.89.08.86.08.83.08.8.08.78.07.75.07.73.07.7.07.69.06.66.07.64.06.62.06.61.06.59.05.57.06.55.05.54.05.53.05.52.05.5.05.5.05.48.05.48.05.47.04.47.05.45.05.46.04.45.05.45.04.44.05.45.04.45.05.45.04.45.05.46.05.46.04.46.05.47.02.19.02.19.02.19.02.18.02.19.02.18.02.19.02.18.02.18.01.18.02.18.02.18.02.17.02.17.02.17.01.17.02.16.02.16.02.16.01.15.02.15.02.15.01.14.02.14.02.14.01.13.02.12.01.12.02.12.01.11.01.1.02.1.01.1.01.08.02.09.01.07.01.07.01.06.01.06.01.05.01.05.01.05.01.06.01.07.02.08.01.08.01.09.02.09.01.1.02.11.01.11.02.11.01.12.02.13.01.13.02.13.02.14.02.14.01.15.02.15.02.16.02.15.02.16.01.17.02.16.02.17.02.17.02.18.02.17.01.18.02.18.02.18.02.19.02.18.01.19.02.18.02.19.01.19.02.18.02.19.02.19.02.2.02.19.02.21.02.2.02.22.02.21.02.22.02.21.02.23.03.22.02.22.02.23.02.23.02.23.03.23.02.23.02.23.02.23.02.23.03.23.04.45.02.22.02.23.02.22.02.22.02.21.02.22.03.2.01.21.02.2.02.2.02.19.02.19.02.19.02.18.01.17.02.17.02.16.13 1.31.13 1.27.12 1.25.12 1.22.12 1.19.12 1.16.11 1.14.12 1.1.1 1.08.11 1.05.1 1.03.1 1 .1.97.19 1.88.09.89.08.88.09.85.08.83.08.8.08.78.08.76.07.73.07.72.07.69.07.67.06.65.07.63.06.61.06.59.06.57.05.55.06.53.05.51.05.5.05.47.05.46.04.45.05.42.04.41.03.26.02.27.03.27.03.27.03.28.03.28.02.28.03.29.03.29.03.29.03.29.03.29.03.29.04.3.03.29.03.29.03.3.03.29.03.29.03.28.03.29.03.29.03.28.03.27.02.28.03.27.03.27.03.26.02.26.03.25.02.25.03.24.02.23.02.23.02.22.03.22.02.21.01.2.02.19.02.18.02.18.02.18.02.19.02.19.02.2.02.19.03.2.02.21.02.2.02.21.03.21.02.21.02.21.03.21.02.21.02.21.03.22.02.21.02.21.03.21.02.21.02.21.03.21.02.21.02.2.03.21.02.2.02.19.02.2.02.19.02.19.02.18.02.18.02.18.02.17.02.17.02.16.02.16.02.15.01.14.05.37.04.38.05.38.05.38.04.39.05.4.05.4.04.4.05.41.05.41.04.41.05.42.05.42.04.41.05.43.05.42.04.42.05.42.05.43.04.42.05.42.04.42.05.42.04.42.04.42.05.41.04.41.04.41.04.4.04.4.04.4.04.39.04.39.04.38.04.38.03.37.04.37.03.35.04.35.03.35.02.17.01.17.02.19.02.2.02.2.02.22.03.22.02.23.02.24.02.25.03.25.02.27.03.26.03.28.02.27.03.29.03.29.03.29.03.3.02.3.09.92.03.31.03.32.03.31.03.32.04.32.03.32.03.32.03.31.03.32.03.32.03.31.03.32.03.31.03.31.03.3.03.31.03.3.03.3.03.29.02.3.03.29.03.29.02.29.03.28.02.29.02.28.03.27.02.28.02.26.02.27.02.26.01.25.02.25.02.25.01.24.02.23.01.23.01.22.01.21.02.21v.19l.01.2.01.18.01.18v.16l.01.16v.75l-.01.09v.08l-.01.07-.01.06-.01.04-.01.06-.02.06-.03.05-.04.07-.04.06-.05.06-.06.07-.07.07-.07.07-.08.08-.09.07-.1.08-.1.09-.12.08-.13.09-.13.1-.14.09-.16.1-.16.11-.18.11-.18.11-.2.12-.2.12-.22.12-.23.13-.24.14-.26.13-.26.15-.28.15-.29.15-.3.16-.31.17-.33.17-.34.17-.36.19-.37.19-.38.19-.4.2-.41.21-.43.21-.31.16-.31.15-.3.15-.31.15-.3.15-.3.14-.29.15-.3.14-.28.14-.29.13-.28.14-.27.13-.28.12-.26.13-.26.12-.26.12-.25.11-.24.11-.24.11-.23.1-.22.1-.22.1-.2.09-.21.08-.19.09-.18.07-.18.08-.16.06-.16.07-.15.05-.14.06-.13.04-.12.05-.1.03-.1.03-.09.03-.07.02-.06.01h-.2l-.04-.01-.05-.01-.05-.01-.04-.01-.06-.02-.05-.01-.06-.02-.06-.02-.06-.02-.06-.03-.06-.02-.07-.03-.06-.02-.07-.03-.07-.03-.08-.03-.07-.04-.07-.03-.08-.04-.07-.03-.08-.04-.08-.04-.08-.04-.08-.04-.08-.04-.08-.04-.08-.04-.08-.05-.09-.04-.08-.04-.08-.05-.08-.05-.09-.04-.08-.05-.08-.05-.08-.05-.08-.04-.09-.05-.09-.06-.09-.06-.11-.06-.1-.06-.12-.07-.12-.07-.12-.08-.13-.07-.13-.08-.14-.09-.14-.08-.15-.09-.15-.09-.15-.09-.16-.09-.16-.1-.16-.1-.17-.09-.17-.11-.17-.1-.17-.1-.18-.1-.17-.11-.18-.11-.18-.1-.18-.11-.19-.11-.18-.11-.18-.11-.19-.1-.18-.11-.19-.11-.18-.11-.19-.11-.18-.11-.18-.1-.18-.11-.18-.1-.18-.11-.18-.1-.18-.11-.17-.11-.18-.1-.17-.11-.18-.1-.17-.11-.17-.1-.17-.1-.16-.1-.17-.1-.16-.1-.16-.1-.15-.09-.16-.1-.15-.09-.15-.09-.14-.09-.14-.09-.14-.08-.14-.09-.13-.08-.12-.08-.12-.07-.12-.08-.12-.07-.1-.07-.11-.06-.1-.06-.09-.06-.09-.06-.08-.05-.08-.05-.07-.05-.06-.04-.06-.04-.05-.04-.05-.03-.04-.03-.03-.03-.03-.02-.03-.03-.03-.04-.03-.04-.03-.04-.03-.04-.03-.05-.03-.05-.03-.05-.03-.05-.03-.06-.02-.06-.03-.06-.03-.06-.03-.07-.03-.07-.03-.07-.02-.07-.03-.08-.03-.07-.03-.08-.02-.08-.03-.08-.02-.08-.03-.09-.02-.08-.02-.09-.03-.08-.02-.09-.02-.09-.02-.09-.02-.09-.02-.09-.02-.1-.02-.09-.02-.09-.01-.09-.02-.1-.01-.09-.01-.1-.07-.48-.06-.48-.07-.47-.06-.47-.06-.47-.06-.47-.06-.46-.07-.46-.06-.45-.05-.45-.06-.44-.06-.45-.06-.43-.05-.44-.06-.42-.05-.42-.06-.42-.05-.41-.05-.41-.06-.4-.05-.4-.05-.39-.04-.38-.05-.38-.05-.37-.05-.36-.04-.36-.04-.35-.05-.35-.04-.34-.04-.33-.04-.32-.04-.32-.03-.31-.04-.3-.03-.29-.04-.28-.03-.28-.03-.27-.03-.26-.02-.16-.01-.16-.02-.16-.02-.15-.02-.16-.01-.16-.02-.15-.02-.16-.02-.15-.01-.15-.02-.15-.02-.15-.02-.15-.02-.14-.02-.15-.01-.14-.02-.14-.02-.13-.02-.13-.02-.13-.01-.13-.02-.13-.02-.12-.02-.11-.01-.12-.02-.11-.02-.1-.01-.11-.02-.09-.01-.1-.02-.09-.01-.08-.02-.08-.01-.07-.01-.07-.01-.07-.02-.06-.01-.05-.01-.05-.01-.04-.01-.04-.01-.05-.01-.05-.01-.06-.01-.06-.02-.07-.01-.07-.01-.07-.01-.09-.02-.08-.01-.09-.02-.09-.01-.1-.01-.1-.02-.1-.02-.11-.01-.11-.02-.11-.01-.12-.02-.11-.01-.13-.02-.12-.02-.12-.01-.13-.02-.13-.02-.13-.01-.14-.02-.13-.02-.14-.02-.14-.01-.14-.02-.14-.02-.14-.01-.14-.02-.14-.02-.14-.01-.15-.02-.14-.02-.14-.01-.14-.04-.31-.04-.32-.04-.32-.04-.33-.05-.34-.04-.35-.05-.36-.04-.37-.05-.38-.05-.39-.05-.4-.06-.42-.05-.43-.06-.45-.06-.46-.06-.48-.07-.5-.06-.52-.07-.53-.08-.55-.07-.58-.08-.59-.08-.62-.08-.64-.09-.67-.09-.69-.1-.71-.09-.74-.11-.76-.1-.8-.11-.82-.12-.85-.11-.88-.12-.91-.13-.94-.13-.98-.14-1-.14-1.04-.14-1.08-.15-1.11-.2-1.43-.18-1.36-.18-1.3-.17-1.24-.16-1.18-.16-1.12-.14-1.07-.14-1.01-.13-.96-.12-.91-.12-.86-.11-.82-.1-.77-.1-.72-.09-.69-.09-.65-.08-.6-.08-.58-.07-.54-.07-.51-.06-.48-.06-.45-.06-.43-.05-.4-.05-.38-.05-.36-.04-.35-.04-.32-.04-.32-.04-.29-.04-.29-.04-.28-.03-.28-.03-.26-.04-.27-.03-.26-.03-.27-.04-.26-.03-.28-.04-.27-.01-.15-.02-.15-.02-.15-.01-.15-.02-.15-.02-.15-.02-.14-.01-.15-.02-.14-.02-.15-.02-.14-.02-.14-.01-.14-.02-.14-.02-.13-.02-.14-.02-.13-.01-.13-.02-.13-.02-.12-.01-.12-.02-.12-.02-.12-.01-.11-.02-.11-.01-.11-.02-.1-.01-.1-.02-.09-.01-.09-.01-.09-.02-.08-.01-.08-.01-.07-.01-.07-.01-.06-.01-.06-.01-.05v-.05l-.01-.04-.01-.04-.01-.04-.01-.05-.01-.06-.02-.06-.01-.06-.01-.07-.02-.08-.01-.08-.02-.08-.01-.09-.02-.09-.01-.1-.02-.1-.02-.11-.01-.1-.02-.12-.02-.11-.01-.12-.02-.12-.02-.13-.02-.12-.02-.13-.01-.14-.02-.13-.02-.14-.02-.14-.02-.14-.02-.14-.01-.14-.02-.15-.02-.15-.02-.14-.02-.15-.01-.15-.02-.15-.02-.16-.02-.15-.01-.15-.02-.15-.02-.16-.01-.16-.02-.17-.02-.18-.02-.18-.02-.19-.03-.19-.02-.2-.02-.2-.03-.21-.03-.21-.02-.22-.03-.22-.03-.23-.02-.22-.03-.23-.03-.24-.03-.23-.03-.24-.03-.24-.03-.24-.03-.24-.03-.25-.03-.24-.03-.25-.06-.48-.03-.25-.03-.24-.03-.24-.03-.24-.03-.24-.03-.24-.03-.24-.03-.23-.03-.23-.03-.22-.02-.23-.03-.22-.03-.21-.03-.22-.03-.22-.03-.22-.03-.23-.03-.22-.03-.23-.03-.23-.03-.24-.03-.23-.03-.24-.03-.24-.03-.24-.03-.23-.03-.24-.03-.24-.03-.24-.03-.24-.03-.23-.03-.24-.03-.23-.03-.23-.03-.23-.03-.23-.03-.22-.02-.22-.03-.22-.03-.22-.02-.21-.03-.2-.02-.2-.03-.2-.02-.19-.02-.19-.02-.18-.02-.18-.03-.17-.01-.16-.02-.16-.02-.15-.02-.14-.01-.15-.02-.14-.02-.14-.01-.15-.02-.14-.02-.14-.01-.14-.02-.15-.02-.14-.01-.14-.02-.14-.02-.14-.02-.13-.01-.14-.02-.13-.02-.14-.01-.13-.02-.12-.02-.13-.01-.13-.02-.12-.01-.12-.02-.11-.02-.12-.01-.11-.02-.1-.01-.11-.01-.1-.02-.1-.01-.09-.02-.09-.01-.09-.01-.08-.02-.07-.01-.08-.01-.06-.01-.07-.01-.06-.01-.05-.01-.05-.02-.05-.01-.05-.01-.07-.02-.06-.01-.08-.02-.07-.01-.09-.02-.08-.01-.09-.02-.1-.01-.1-.02-.1-.01-.11-.02-.11-.02-.12-.02-.11-.01-.13-.02-.12-.02-.13-.01-.13-.02-.13-.02-.13-.02-.14-.02-.14-.02-.14-.01-.14-.02-.15-.02-.15-.02-.14-.02-.15-.02-.15-.02-.15-.02-.15-.02-.16-.02-.15-.02-.15-.01-.15-.02-.16-.02-.15-.02-.15-.02-.16-.02-.16-.02-.17-.01-.17-.03-.18-.02-.19-.02-.19-.02-.2-.02-.2-.03-.21-.02-.21-.03-.21-.02-.22-.03-.22-.02-.22-.03-.23-.03-.22-.03-.23-.02-.24-.03-.23-.03-.24-.03-.23-.03-.24-.03-.24-.03-.24-.03-.23-.02-.24-.03-.24-.03-.23-.03-.24-.03-.23-.03-.23-.03-.23-.03-.23-.02-.22-.03-.22-.03-.22-.03-.21-.02-.21-.03-.21-.03-.2-.03-.21-.03-.21-.03-.2-.02-.21-.03-.21-.03-.21-.03-.21-.03-.21-.03-.2-.02-.21-.03-.21-.03-.2-.03-.2-.02-.21-.03-.19-.02-.2-.03-.2-.03-.19-.02-.19-.02-.18-.03-.19-.02-.18-.02-.17-.02-.17-.03-.17-.02-.16-.02-.16-.02-.16-.01-.14-.02-.15-.02-.14-.02-.13-.01-.12-.02-.12-.01-.11-.01-.11-.01-.1-.02-.09-.01-.09-.03-.28-.04-.29-.04-.32-.05-.32-.04-.35-.05-.35-.04-.37-.05-.38-.06-.39-.05-.4-.05-.41-.06-.42-.05-.42-.06-.44-.06-.44-.06-.44-.06-.45-.06-.46-.06-.45-.06-.46-.06-.47-.06-.46-.06-.46-.06-.47-.06-.46-.06-.46-.06-.45-.06-.46-.06-.45-.06-.44-.06-.44-.05-.43-.06-.42-.05-.42-.06-.4-.05-.4-.05-.39-.05-.37-.05-.36-.04-.35-.03-.2-.03-.19-.03-.2-.02-.2-.03-.21-.03-.21-.03-.21-.03-.22-.03-.22-.03-.22-.03-.22-.03-.23-.03-.23-.03-.23-.03-.23-.03-.23-.04-.23-.03-.23-.03-.23-.03-.23-.03-.23-.03-.23-.03-.23-.03-.23-.03-.22-.03-.23-.03-.22-.03-.22-.02-.21-.03-.22-.03-.2-.02-.21-.03-.2-.02-.2-.03-.2-.02-.19-.02-.18-.03-.18-.02-.17-.02-.17-.04-.29-.03-.27-.04-.25-.03-.25-.03-.23-.04-.22-.03-.21-.03-.19-.03-.19-.03-.17-.03-.17-.03-.15-.03-.15-.03-.13-.03-.13-.03-.12-.04-.11-.03-.11-.03-.09-.04-.09-.04-.08-.04-.08-.04-.07-.04-.07-.04-.06-.05-.05-.05-.05-.05-.05-.05-.05-.06-.04-.06-.04-.06-.03-.07-.04-.06-.03-.08-.03-.07-.03-.08-.03-.08-.04-.09-.03-.09-.03-.06-.02-.07-.02-.07-.02-.08-.02-.09-.03-.09-.02-.1-.03-.11-.02-.11-.03-.11-.02-.13-.03-.13-.03-.13-.03-.14-.03-.14-.03-.15-.03-.15-.03-.15-.03-.16-.03-.17-.03-.16-.03-.17-.03-.18-.03-.17-.03-.18-.03-.18-.03-.19-.03-.18-.04-.19-.03-.19-.03-.19-.03-.2-.03-.19-.03-.2-.03-.19-.02-.2-.03-.2-.03-.2-.03-.19-.02-.2-.03-.68-.09-.64-.09-.62-.09-.6-.08-.57-.07-.54-.08-.53-.07-.5-.07-.49-.07-.46-.06-.45-.06-.44-.06-.42-.06-.41-.06-.39-.05-.39-.06-.38-.05-.37-.05-.37-.05-.36-.05-.36-.05-.35-.06-.36-.05-.36-.05-.35-.05-.37-.05-.36-.06-.38-.05-.37-.06-.39-.05-.4-.06-.41-.06-.43-.07-.43-.06-.45-.07-.47-.07-.49-.07-.51-.08-.52-.08-.55-.08-.63-.1-.62-.09-.62-.1-.63-.09-.62-.1-.62-.09-.63-.1-.62-.09-.63-.1-.63-.09-.64-.09-.64-.1-.64-.09-.64-.1-.65-.09-.65-.1-.66-.09-.67-.1-.67-.1-.67-.09-.69-.1-.69-.1-.7-.1-.7-.1-.72-.1-.72-.11-.73-.1-.75-.11-.75-.1-.76-.11-.77-.11-.79-.11-.8-.11-.81-.12-.82-.11-.83-.12-.85-.12-.86-.12-.87-.13-.89-.12-.13-.02-.13-.02-.14-.02-.14-.02-.15-.03-.15-.02-.16-.02-.16-.02-.16-.03-.17-.02-.18-.03-.17-.02-.18-.03-.18-.03-.19-.02-.18-.03-.19-.02-.19-.03-.2-.03-.38-.05-.2-.03-.2-.03-.19-.03-.2-.03-.2-.02-.19-.03-.2-.03-.19-.03-.2-.03-.19-.02-.19-.03-.19-.03-.19-.03-.18-.02-.19-.03-.18-.03-.17-.02-.18-.03-.17-.03-1.18-.17-1.13-.18-1.09-.16-1.05-.16-1-.15-.97-.14-.92-.14-.88-.13-.85-.12-.81-.12-.76-.12-.74-.1-.69-.1-.67-.1-.63-.09-.59-.08-.56-.08-.54-.07-.5-.07-.47-.06-.44-.06-.41-.06-.39-.05-.36-.04-.34-.04-.31-.03-.28-.04-.26-.02-.24-.02-.22-.02-.2-.02-.18-.01-.16-.01h-.37l-.09.01-.07.01-.07.01-.05.01-.04.04-.05.09-.05.13-.04.18-.04.23-.04.28-.05.33-.04.39-.03.45-.04.5-.04.57-.04.63-.03.7-.04.77-.03.83-.03.91-.04.98-.03 1.05-.03 1.14-.03 1.21-.03 1.29-.03 1.38-.03 1.46-.03 1.55-.03 1.64-.03 1.73-.03 1.82-.03 1.92-.02 2.01-.03 2.12-.03 2.21-.03 2.32-.03 2.43-.02 2.53-.03 2.64-.03 2.75-.03 2.86-.03 2.98-.02 3.09-.03 3.22-.06 6.01-.05 5.71-.05 5.42-.04 5.13-.05 4.86-.04 4.58-.04 4.33-.04 4.07-.03 3.82-.04 3.58-.03 3.35-.03 3.13-.03 2.92-.03 2.7-.03 2.51-.03 2.32-.02 2.13-.03 1.95-.03 1.79-.02 1.62-.03 1.48-.02 1.32-.03 1.2-.02 1.06-.03.94-.02.82-.03.72-.03.62-.02.53-.03.45-.03.38-.03.3-.03.25-.04.2-.03.15-.04.11-.04.09-.04.07-.04.06-.04.05-.03.03-.03.02-.04.03-.04.03-.05.04-.05.03-.06.04-.06.03-.06.04-.07.04-.07.04-.07.04-.08.04-.08.04-.08.05-.09.04-.09.04-.1.05-.09.04-.1.05-.1.05-.11.04-.1.05-.11.05-.11.04-.12.05-.11.05-.12.05-.12.04-.12.05-.12.05-.12.05-.12.04-.13.05-.12.04-.13.05-.13.04-.13.05-.13.04-.13.04-.13.05-.13.04-.13.04-.13.05-.14.04-.13.05-.14.04-.13.05-.14.05-.14.04-.13.05-.14.05-.13.05-.14.05-.13.04-.14.05-.13.05-.13.05-.13.04-.13.05-.12.05-.13.04-.12.05-.12.05-.12.04-.11.04-.12.05-.11.04-.1.04-.11.04-.1.05-.09.03-.1.04-.09.04-.08.04-.09.03-.07.04-.08.03-.06.03-.07.03-.06.03-.07.04-.07.03-.07.04-.08.03-.08.04-.09.04-.08.04-.09.04-.1.04-.09.04-.1.04-.1.05-.1.04-.1.04-.11.05-.1.04-.11.05-.11.04-.11.04-.12.05-.11.04-.11.05-.12.04-.11.05-.12.04-.12.04-.11.05-.12.04-.11.04-.12.05-.12.04-.11.04-.12.04-.11.04-.11.04-.11.04-.11.04-.11.03-.11.04-.11.04-.11.03-.11.04-.11.04-.11.04-.12.04-.11.04-.12.04-.11.04-.12.04-.11.04-.12.04-.12.04-.11.05-.12.04-.12.04-.11.04-.12.05-.11.04-.11.04-.12.04-.11.04-.11.05-.1.04-.11.04-.11.04-.1.04-.1.04-.1.04-.09.03-.1.04-.09.04-.09.04-.09.03-.08.04-.08.03-.08.03-.07.03-.07.04-.07.02-.1.05-.1.04-.1.04-.09.04-.09.03-.09.04-.08.03-.08.02-.07.03-.08.02-.07.02-.07.02-.07.02-.06.01-.07.02h-.06l-.06.01-.06.01h-.12l-.06-.01h-.06l-.06-.01-.06-.01-.06-.01-.06-.02-.06-.01-.06-.02-.06-.03-.07-.02-.06-.03-.07-.03-.07-.03-.07-.04-.08-.03-.07-.04-.08-.05-.08-.04-.09-.05-.09-.05-.21-.12-.23-.15-.25-.16-.26-.18-.28-.19-.29-.21-.3-.23-.31-.23-.33-.25-.33-.26-.33-.27-.35-.28-.34-.29-.36-.29-.35-.3-.36-.31-.35-.31-.36-.31-.35-.31-.35-.32-.35-.31-.34-.31-.33-.31-.33-.31-.31-.3-.31-.3-.3-.29-.28-.28-.27-.28-.25-.26-.24-.25-.22-.24-.2-.23-.19-.22-.16-.2-.14-.18-.12-.17-.1-.15-.06-.13-.05-.11-.01-.07-.02-.08-.02-.1-.01-.12-.02-.15-.02-.16-.02-.18-.02-.2-.01-.21-.02-.23-.02-.25-.02-.27-.02-.28-.02-.29-.01-.31-.02-.33-.02-.33-.02-.36-.02-.36-.02-.38-.02-.38-.02-.4-.01-.41-.02-.42-.02-.43-.02-.44-.02-.45-.01-.46-.02-.47-.02-.47-.01-.48-.02-.49-.02-.49-.01-.5-.02-.5-.01-.51-.02-.52-.01-.51-.01-.52-.02-.53-.02-.95-.02-.93-.01-.88-.02-.86-.02-.83-.02-.8-.01-.78-.02-.76-.02-.75-.01-.74-.02-.73-.02-.73-.01-.72-.02-.72-.02-.73-.02-.73-.02-.75-.02-.76-.02-.78-.02-.8-.02-.82-.02-.85-.03-.88-.02-.92-.03-.95-.03-.99-.03-1.03-.03-1.08-.03-1.13-.04-1.19-.03-1.23-.04-1.3-.04-1.36-.04-1.43-.04-1.5-.05-1.57-.04-1.64-.05-1.72-.05-1.81-.06-1.89-.01-.62-.02-.65-.02-.67-.02-.69-.02-.71-.02-.73-.01-.75-.03-.76-.02-.78-.02-.79-.02-.8-.02-.82-.02-.82-.02-.84-.03-.84-.02-.86-.02-.86-.03-.86-.02-.87-.02-.87-.03-.88-.02-.88-.02-.87-.03-.88-.02-.87-.02-.88-.03-.86-.02-.87-.02-.85-.03-.85-.02-.85-.02-.83-.02-.82-.03-.81-.02-.8-.02-.79-.02-.77-.02-.75-.02-.74-.02-.72-.02-.72-.01-.74-.02-.75-.02-.77-.02-.77-.02-.79-.02-.8-.02-.81-.02-.81-.02-.83-.02-.82-.02-.84-.03-.84-.02-.84-.02-.85-.02-.84-.03-.85-.02-.85-.02-.84-.03-.84-.02-.84-.02-.83-.03-.83-.02-.82-.02-.81-.03-.8-.02-.8-.02-.78-.03-.77-.02-.76-.02-.74-.03-.73-.02-.71-.02-.7-.02-.68-.02-.65-.02-.64-.02-.62-.02-.59-.02-.58-.02-.57-.02-.59-.01-.62-.02-.63-.02-.66-.02-.67-.01-.69-.02-.7-.02-.72-.02-.73-.02-.75-.02-.76-.01-.77-.02-.78-.02-.79-.02-.8-.02-.8-.01-.81-.02-.82-.02-.82-.02-.82-.02-.83-.01-.82-.02-.83-.02-.83-.01-.82-.02-.82-.02-.82-.01-.81-.02-.81-.01-.8-.02-.79-.01-.78-.01-.78-.02-.76-.01-.75-.01-.74-.01-.73-.01-.71-.01-.69-.03-1.68-.03-1.62-.02-1.56-.03-1.51-.04-1.45-.03-1.39-.04-1.35-.04-1.3-.04-1.26-.04-1.21-.05-1.18-.05-1.13-.06-1.11-.06-1.06-.06-1.04-.07-1.02-.07-.98-.08-.97-.08-.94-.09-.92-.1-.91-.1-.9-.1-.89-.12-.88-.12-.87-.12-.87-.14-.87-.14-.87-.15-.87-.15-.88-.17-.89-.17-.9-.19-.91-.19-.93-.2-.95-.21-.97-.22-1-.23-1.02-.24-1.04-.25-1.08-.07-.27-.07-.29-.08-.31-.08-.33-.1-.35-.1-.37-.1-.38-.12-.4-.12-.42-.12-.43-.13-.44-.13-.46-.14-.47-.15-.49-.15-.49-.15-.51-.16-.51-.16-.53-.16-.53-.17-.54-.17-.55-.18-.56-.17-.56-.18-.56-.19-.57-.18-.57-.19-.58-.19-.58-.19-.57-.19-.58-.19-.58-.19-.58-.19-.58-.2-.57-.19-.57-.2-.57-.19-.56-.19-.56-.2-.55-.19-.54-.09-.26-.09-.27-.1-.27-.09-.27-.1-.28-.1-.28-.1-.29-.1-.28-.1-.29-.1-.29-.1-.29-.11-.29-.1-.3-.1-.29-.11-.29-.1-.3-.1-.29-.1-.29-.1-.29-.1-.29-.1-.28-.1-.29-.1-.28-.1-.28-.09-.27-.1-.27-.09-.27-.09-.26-.09-.26-.09-.25-.08-.25-.08-.24-.08-.24-.08-.23-.08-.22-.07-.21-.07-.21-.06-.2-.07-.19-.06-.18-.12-.36-.06-.18-.13-.36-.06-.17-.24-.71-.12-.34-.12-.34-.05-.17-.06-.16-.06-.16-.05-.16-.06-.16-.05-.15-.05-.15-.05-.15-.05-.15-.05-.14-.05-.13-.04-.14-.05-.12-.04-.13-.04-.12-.04-.11-.04-.11-.04-.11-.03-.1-.04-.09-.03-.09-.03-.08-.02-.08-.03-.07-.02-.07-.02-.06-.02-.05-.03-.07-.02-.07-.03-.08-.03-.09-.03-.09-.04-.1-.04-.11-.04-.12-.04-.12-.05-.13-.04-.13-.05-.14-.05-.15-.05-.15-.05-.15-.06-.16-.06-.17-.05-.17-.06-.17-.06-.18-.07-.18-.06-.19-.06-.19-.07-.19-.06-.2-.07-.2-.07-.2-.07-.2-.06-.21-.07-.2-.07-.21-.07-.21-.08-.21-.07-.21-.07-.22-.07-.21-.07-.21-.07-.22-.07-.21-.07-.22-.08-.21-.07-.21-.07-.22-.07-.21-.07-.21-.07-.21-.07-.21-.07-.21-.07-.2-.07-.21-.07-.2-.07-.2-.06-.2-.07-.19-.06-.19-.07-.19-.06-.19-.06-.18-.06-.17-.06-.18-.06-.17-.06-.16-.05-.16-.06-.16-.05-.15-.05-.14-.04-.14-.05-.14-.05-.13-.04-.12-.04-.12-.04-.11-.03-.1-.04-.1-.03-.09-.02-.08-.03-.07-.02-.07-.03-.06-.01-.05-.02-.07-.03-.07-.02-.08-.03-.08-.03-.1-.04-.1-.03-.1-.04-.12-.04-.12-.04-.12-.05-.13-.04-.14-.05-.14-.05-.15-.05-.15-.06-.15-.05-.16-.06-.17-.05-.17-.06-.17-.06-.18-.06-.18-.07-.18-.06-.19-.06-.18-.07-.2-.06-.19-.07-.19-.07-.2-.07-.2-.06-.2-.07-.2-.07-.2-.07-.21-.07-.2-.07-.21-.06-.2-.07-.21-.07-.2-.07-.21-.08-.23-.09-.24-.09-.26-.09-.27-.1-.29-.1-.3-.11-.31-.11-.33-.12-.33-.12-.35-.12-.36-.13-.37-.13-.37-.13-.39-.14-.4-.14-.4-.14-.41-.14-.42-.15-.43-.15-.43-.15-.43-.15-.45-.15-.44-.16-.45-.16-.46-.15-.45-.16-.46-.16-.46-.16-.47-.16-.46-.16-.46-.16-.47-.16-.46-.16-.46-.16-.46-.16-.46-.16-.46-.16-.45-.15-.45-.15-.44-.16-.45-.15-.44-.15-.44-.15-.43-.15-.44-.14-.43-.15-.42-.15-.43-.14-.41-.14-.42-.14-.41-.14-.4-.14-.4-.13-.39-.13-.38-.13-.37-.13-.37-.12-.36-.12-.35-.11-.34-.12-.34-.11-.32-.1-.31-.11-.3-.09-.29-.1-.28-.09-.27-.08-.25-.08-.24-.08-.23-.07-.22-.06-.2-.07-.18-.05-.17-.05-.16-.04-.14-.04-.12-.03-.11-.03-.09-.03-.08-.03-.1-.03-.1-.04-.12-.04-.12-.04-.13-.05-.14-.05-.14-.05-.16-.05-.16-.06-.17-.06-.17-.06-.19-.06-.18-.07-.2-.07-.2-.06-.2-.08-.21-.07-.22-.07-.22-.08-.22-.08-.23-.08-.24-.08-.23-.08-.24-.08-.25-.25-.74-.09-.25-.08-.26-.09-.26-.09-.25-.09-.26-.08-.26-.09-.26-.09-.26-.09-.26-.09-.26-.08-.26-.26-.74-.26-.73-.25-.71-.24-.7-.24-.68-.23-.67-.23-.65-.22-.64-.22-.62-.21-.61-.21-.6-.2-.58-.19-.56-.19-.55-.19-.54-.18-.52-.17-.5-.17-.49-.16-.48-.16-.46-.15-.45-.15-.43-.14-.42-.14-.4-.13-.39-.13-.37-.12-.36-.11-.34-.11-.33-.11-.31-.1-.3-.09-.28-.09-.27-.08-.25-.08-.24-.07-.22-.07-.21-.06-.2-.06-.17-.05-.17-.03-.08-.03-.1-.04-.12-.04-.12-.04-.14-.05-.14-.06-.16-.05-.17-.06-.18-.07-.19-.07-.2-.07-.21-.07-.22-.08-.22-.08-.24-.08-.24-.09-.25-.09-.26-.09-.26-.09-.28-.1-.27-.09-.29-.1-.29-.11-.29-.1-.31-.11-.3-.1-.31-.11-.32-.11-.32-.12-.32-.11-.32-.11-.33-.12-.33-.12-.34-.11-.33-.12-.34-.12-.34-.12-.33-.12-.34-.12-.34-.12-.34-.12-.34-.12-.33-.11-.34-.12-.34-.12-.33-.12-.33-.11-.33-.12-.33-.11-.32-.11-.32-.11-.32-.11-.32-.11-.31-.1-.3-.11-.3-.1-.3-.1-.29-.1-.29-.09-.28-.09-.27-.09-.27-.09-.25-.09-.26-.08-.24-.08-.24-.07-.22-.07-.22-.07-.21-.07-.2-.06-.19-.06-.18-.06-.17-.05-.16-.04-.15-.05-.14-.03-.12-.04-.11-.03-.1-.02-.09-.03-.09-.03-.09-.04-.11-.03-.11-.04-.12-.05-.13-.04-.14-.05-.15-.05-.15-.06-.16-.05-.17-.06-.18-.06-.18-.07-.19-.06-.19-.07-.2-.07-.21-.07-.21-.08-.21-.07-.22-.08-.23-.08-.23-.08-.23-.08-.24-.08-.24-.08-.24-.09-.25-.08-.24-.09-.25-.09-.26-.09-.25-.09-.26-.09-.26-.09-.26-.09-.26-.09-.26-.09-.26-.09-.26-.09-.26-.09-.26-.09-.26-.09-.26-.1-.27-.09-.28-.1-.27-.1-.28-.1-.29-.1-.28-.1-.29-.1-.29-.1-.29-.1-.29-.1-.3-.1-.29-.11-.29-.1-.3-.1-.29-.1-.29-.1-.29-.1-.29-.1-.29-.1-.28-.09-.28-.1-.28-.1-.27-.09-.27-.09-.27-.09-.26-.09-.26-.09-.25-.09-.25-.08-.24-.08-.24-.08-.23-.08-.22-.07-.21-.07-.21-.07-.2-.13-.37-.06-.18-.06-.18-.06-.18-.05-.18-.06-.18-.06-.17-.06-.18-.06-.18-.06-.17-.06-.18-.06-.17-.05-.17-.06-.18-.06-.16-.05-.17-.06-.16-.05-.17-.06-.16-.05-.15-.05-.16-.05-.15-.06-.14-.04-.15-.05-.14-.05-.13-.04-.14-.05-.13-.04-.12-.04-.12-.04-.11-.04-.11-.04-.11-.03-.1-.03-.09-.04-.09-.02-.09-.03-.07-.03-.07-.02-.07-.02-.06-.02-.05-.02-.06-.02-.06-.03-.07-.02-.07-.03-.07-.02-.08-.03-.08-.03-.08-.03-.09-.03-.09-.03-.09-.04-.1-.03-.1-.03-.1-.04-.1-.03-.11-.04-.1-.04-.11-.03-.11-.04-.12-.04-.11-.04-.12-.04-.11-.03-.12-.04-.12-.04-.12-.04-.12-.04-.12-.08-.24-.04-.12-.04-.12-.04-.12-.04-.12-.04-.13-.04-.11-.04-.12-.04-.12-.04-.12-.04-.12-.05-.15-.05-.16-.06-.17-.07-.2-.07-.2-.07-.23-.09-.23-.08-.25-.09-.27-.1-.28-.09-.29-.11-.3-.11-.32-.11-.32-.11-.34-.12-.35-.12-.36-.13-.37-.13-.37-.13-.39-.13-.39-.14-.4-.14-.41-.14-.42-.15-.42-.14-.43-.15-.43-.15-.44-.16-.44-.15-.45-.15-.45-.16-.45-.15-.46-.16-.46-.16-.46-.16-.46-.16-.47-.16-.46-.15-.46-.17-.46-.16-.47-.16-.46-.15-.45-.16-.46-.16-.45-.15-.45-.16-.44-.15-.44-.15-.43-.15-.43-.14-.43-.14-.41-.14-.41-.14-.41-.14-.39-.13-.39-.13-.38-.13-.38-.12-.36-.12-.35-.12-.34-.11-.34-.11-.32-.1-.31-.1-.3-.1-.28-.09-.28-.09-.26-.08-.25-.08-.23-.07-.22-.07-.21-.06-.19-.06-.17-.05-.16-.05-.14-.04-.12-.04-.11-.02-.09-.03-.09-.03-.09-.03-.11-.03-.11-.04-.12-.04-.13-.04-.14-.05-.15-.05-.15-.05-.16-.06-.17-.06-.18-.06-.18-.06-.19-.06-.19-.07-.2-.07-.21-.07-.21-.07-.21-.08-.22-.07-.23-.08-.23-.08-.23-.08-.24-.08-.24-.09-.24-.08-.25-.08-.24-.09-.26-.09-.25-.09-.25-.09-.26-.08-.26-.09-.26-.09-.26-.09-.26-.1-.26-.09-.26-.09-.26-.09-.26-.09-.26-.09-.26-.1-.27-.09-.27-.09-.27-.1-.28-.1-.27-.09-.28-.1-.28-.1-.28-.1-.28-.1-.28-.09-.28-.1-.28-.1-.28-.09-.28-.1-.28-.1-.27-.09-.27-.09-.28-.1-.26-.09-.27-.09-.26-.09-.26-.08-.25-.09-.25-.08-.25-.09-.24-.07-.23-.08-.23-.08-.23-.07-.22-.07-.21-.07-.2-.07-.2-.06-.19-.06-.18-.06-.17-.05-.17-.05-.16-.05-.15-.05-.15-.16-.47-.06-.16-.05-.16-.05-.16-.06-.15-.05-.16-.06-.16-.05-.16-.05-.15-.06-.16-.05-.16-.05-.15-.05-.15-.06-.15-.05-.15-.05-.15-.05-.15-.05-.14-.04-.14-.05-.14-.05-.13-.04-.14-.05-.13-.04-.12-.05-.13-.04-.12-.04-.11-.04-.11-.03-.11-.04-.1-.04-.1-.03-.1-.03-.09-.03-.08-.03-.08-.03-.07-.07-.19-.07-.19-.08-.2-.08-.21-.08-.21-.08-.22-.08-.23-.08-.23-.08-.23-.09-.24-.08-.25-.09-.24-.08-.25-.08-.25-.09-.24-.08-.25-.08-.25-.08-.24-.08-.25-.07-.24-.08-.24-.07-.23-.07-.23-.07-.22-.07-.22-.06-.21-.06-.2-.06-.19-.05-.19-.05-.17-.05-.17-.04-.16-.04-.14-.03-.13-.03-.12-.03-.11-.01-.09-.02-.08-.01-.06v-.05l.01-.04.02-.06.03-.07.04-.08.06-.09.07-.11.08-.12.09-.13.1-.14.11-.15.12-.16.13-.17.14-.18.15-.18.15-.2.17-.2.17-.21.18-.22.18-.22.2-.23.19-.23.21-.24.21-.24.21-.25.22-.25.22-.26.23-.26.23-.26.23-.26.24-.27.24-.26.24-.27.24-.27.24-.26.25-.27.24-.26.25-.27.24-.26.25-.26.24-.26.21-.21.19-.2.19-.19.18-.18.18-.17.17-.17.17-.15.16-.15.16-.15.15-.13.16-.13.15-.12.14-.11.15-.11.15-.11.14-.09.15-.1.15-.08.15-.08.15-.08.15-.08.15-.06.16-.07.17-.06.16-.06.18-.06.17-.05.19-.05.19-.05.19-.04.21-.05.21-.04.22-.04.23-.05.24-.04.25-.04.26-.04.27-.04.28-.04.3-.04.43-.06.44-.06.47-.06.49-.07.51-.07.53-.08.54-.08.55-.08.56-.08.58-.08.58-.09.59-.09.6-.08.6-.09.6-.1.61-.09.6-.09.6-.09.6-.09.59-.1.59-.09.58-.09.57-.09.55-.08.54-.09.53-.09.51-.08.5-.08.47-.08.46-.07.43-.07.41-.07.38-.07.36-.06.33-.06.29-.05.27-.05.23-.05.2-.04.16-.03.47-.11.47-.1.46-.1.45-.09.45-.1.44-.09.44-.09.44-.09.43-.09.42-.09.42-.09.42-.08.41-.09.42-.08.41-.08.4-.08.41-.08.4-.08.4-.08.41-.07.4-.08.4-.07.4-.08.4-.07.4-.07.4-.08.4-.07.4-.07.41-.07.41-.07.41-.07.41-.07.41-.07.42-.07.43-.08.42-.07.43-.07.44-.07.44-.07.44-.07.76-.12.73-.12.7-.12.68-.11.65-.1.63-.11.6-.09.58-.1.56-.09.53-.09.51-.08.49-.08.48-.08.45-.07.43-.08.42-.06.4-.07.38-.06.36-.06.36-.06.33-.06.33-.05.31-.06.3-.05.29-.05.28-.04.27-.05.26-.04.25-.05.24-.04.24-.04.23-.04.23-.04.22-.04.22-.04.21-.04.22-.04.21-.04.21-.03.21-.04.28-.06.3-.06.31-.05.33-.06.33-.06.34-.07.36-.06.36-.06.37-.07.38-.06.38-.07.4-.06.4-.07.4-.06.41-.07.41-.07.42-.06.41-.07.43-.06.42-.07.42-.07.42-.06.43-.07.42-.06.42-.06.41-.06.42-.06.41-.06.41-.06.4-.06.39-.06.39-.05.39-.05.37-.06.37-.05.36-.04.34-.05.34-.04.33-.05.32-.04.13-.01.13-.02.13-.02.14-.02.13-.01.15-.02.14-.02.14-.02.15-.02.15-.02.14-.02.15-.02.16-.02.15-.02.15-.02.15-.02.15-.03.16-.02.15-.02.15-.02.15-.02.16-.02.15-.03.15-.02.14-.02.15-.02.15-.02.14-.03.14-.02.14-.02.14-.02.13-.02.13-.02.13-.03.13-.02.12-.02.12-.02.12-.02.11-.02.11-.02.44-.07.43-.08.43-.08.42-.07.42-.07.42-.07.4-.07.41-.07.39-.07.4-.07.38-.06.39-.07.37-.06.37-.06.37-.07.36-.06.35-.06.35-.05.35-.06.33-.06.34-.05.32-.05.32-.06.32-.05.31-.05.3-.05.3-.04.29-.05.29-.04.28-.05.27-.04.27-.04.26-.05.25-.03.25-.04.24-.04.24-.04.23-.03.22-.04.22-.03.88-.13.85-.13.82-.12.79-.11.76-.12.73-.1.71-.11.69-.1.65-.09.64-.09.61-.09.59-.09.56-.08.55-.07.52-.08.5-.07.49-.07.47-.06.45-.07.43-.05.42-.06.4-.06.39-.05.37-.05.36-.05.35-.04.34-.05.32-.04.32-.04.31-.04.3-.03.29-.04.28-.04.28-.03.27-.03.27-.03.26-.03.27-.03.25-.03.26-.03.16-.02.17-.02.17-.01.16-.02.18-.02.17-.02.17-.02.18-.02.17-.02.18-.02.17-.02.18-.02.18-.02.17-.02.18-.02.17-.02.18-.02.17-.02.17-.02.17-.02.17-.02.17-.02.17-.03.16-.02.16-.02.16-.02.15-.02.16-.02.14-.02.15-.02.14-.02.14-.02.13-.02.13-.02.13-.01.12-.02.11-.02.12-.02.1-.01.1-.02.1-.02.11-.02.12-.01.13-.02.14-.03.14-.02.15-.02.16-.02.17-.03.18-.02.18-.03.18-.03.19-.02.2-.03.21-.03.21-.03.21-.03.22-.03.22-.03.23-.03.23-.03.23-.03.24-.03.24-.03.25-.03.24-.04.25-.03.25-.03.25-.03.25-.03.26-.04.25-.03.26-.03.25-.03.26-.03.25-.03.26-.03.25-.03.25-.03.25-.03.25-.03.25-.03.25-.03.26-.03.25-.03.25-.03.25-.03.25-.03.25-.04.25-.03.25-.03.25-.03.24-.03.24-.03.24-.03.24-.03.23-.03.24-.03.22-.03.23-.03.21-.03.22-.03.21-.03.2-.03.2-.03.2-.03.19-.03.18-.02.17-.03.17-.03.17-.02.15-.03.15-.02.14-.03.13-.02.13-.02.11-.02.11-.03.1-.02.09-.02.09-.01.09-.02.09-.01.1-.02.09-.01.1-.02.11-.01.1-.02.1-.01.11-.02.11-.01.1-.02.11-.01.11-.01.11-.01.11-.02.12-.01.11-.01.11-.01.11-.01.11-.01.11-.01.12-.01.11-.01.11-.01.1-.01h.11l.11-.01.1-.01h.11l.1-.01h.1l.1-.01h.1l.09-.01h.44l.09-.01h.35l.1-.01h.09l.1-.01h.1l.1-.01.1-.01.1-.01.1-.01h.1l.1-.01.1-.01.11-.02.1-.01.1-.01.1-.01.1-.01.11-.01.1-.02.1-.01.1-.01.1-.02.09-.01.1-.02.09-.01.1-.02.09-.01.09-.02.09-.01.08-.02.09-.02.08-.01.08-.02.08-.01.07-.02.08-.02.07-.02.08-.02.09-.02.09-.02.09-.02.11-.02.1-.02.11-.03.12-.02.12-.02.12-.02.13-.03.13-.02.13-.02.14-.03.14-.02.15-.02.14-.03.15-.02.16-.02.15-.03.16-.02.15-.02.16-.03.16-.02.17-.02.16-.03.16-.02.17-.02.16-.02.17-.02.16-.02.17-.02.17-.02.16-.02.16-.02.17-.02.16-.02.16-.01.16-.02.16-.02.17-.01.18-.02.18-.02.18-.02.19-.02.19-.02.19-.02.2-.02.2-.02.2-.02.2-.02.21-.02.21-.03.21-.02.21-.02.21-.02.43-.05.21-.02.22-.02.21-.03.22-.02.21-.02.21-.02.21-.03.21-.02.21-.02.21-.02.2-.02.2-.02.2-.02.2-.02.19-.02.19-.02.18-.02.18-.02.18-.02.17-.01.17-.02.17-.02.17-.02.17-.02.17-.02.17-.02.17-.02.17-.03.17-.02.17-.02.17-.02.17-.03.17-.02.17-.03.16-.02.17-.02.16-.03.16-.02.16-.03.15-.02.16-.02.15-.03.15-.02.14-.03.14-.02.14-.02.14-.03.13-.02.13-.03.12-.02.12-.02.11-.03.12-.02.1-.02.1-.02.1-.02.09-.03.08-.02.08-.02.08-.02.06-.02.07-.01.07-.02.07-.02.08-.01.08-.02.08-.01.08-.02.09-.01.08-.02.09-.02.09-.01.1-.02.09-.01.1-.01.1-.02.1-.01.1-.02.1-.01.1-.01.11-.01.1-.02.1-.01.11-.01.1-.01.11-.01.1-.01.11-.01.1-.01h.11l.1-.01.11-.01h.1l.1-.01.1-.01h.2l.09-.01h.59l.11-.01h.11l.12-.01h.12l.12-.01.13-.01h.13l.13-.01.14-.01.14-.02.14-.01.14-.01.15-.01.14-.02.15-.01.15-.02.15-.01.16-.02.15-.02.16-.01.15-.02.16-.02.15-.02.16-.02.15-.02.16-.02.15-.02.16-.03.15-.02.15-.02.16-.02.15-.03.14-.02.15-.03.14-.02.15-.03.14-.02.14-.03.15-.03.15-.02.16-.03.15-.03.16-.02.16-.03.17-.03.17-.03.16-.02.17-.03.18-.03.17-.02.17-.03.18-.03.17-.02.18-.03.18-.03.17-.02.18-.03.17-.02.18-.03.17-.02.17-.02.18-.03.17-.02.17-.02.16-.02.17-.02.16-.02.16-.02.16-.02.15-.02.15-.01.15-.02.15-.01.14-.02.13-.01.14-.01.12-.01.36-.03.33-.03.32-.02.3-.02.29-.02h.27l.26-.01.25.01.24.01Zm10.72 176.73-.3.01-.32.02-.35.02-.38.03-.4.04-.42.04-.45.05-.47.05-.5.06-.52.07-.55.07-.57.08-.6.08-.62.09-.65.1-.68.1-.7.11-.73.11-.75.12-.78.13-.81.13-.83.14-.86.15-.89.15-.92.16-.94.17-.97.17-.99.18-1.03.18-1.05.19-.44.09-.46.08-.49.1-.52.1-.54.11-.56.11-.58.12-.6.13-.62.12-.63.14-.65.13-.66.15-.67.14-.67.15-.69.15-.7.15-.69.16-.71.15-.7.16-.71.16-.7.16-.7.16-.7.16-.7.16-.68.16-.68.16-.67.15-.65.16-.65.15-.63.16-.61.14-.6.15-.57.14-.56.14-.53.14-.52.13-.48.12-.46.12-.44.12-.4.11-.14.03-.13.04-.14.04-.14.04-.29.07-.15.04-.15.04-.15.04-.15.04-.16.05-.15.04-.15.04-.16.04-.15.04-.16.04-.15.04-.16.04-.15.05-.16.04-.15.04-.15.04-.15.04-.15.03-.15.04-.14.04-.14.04-.15.03-.13.04-.14.04-.13.03-.13.03-.13.03-.12.04-.12.03-.12.02-.11.03-.11.03-.11.02-.09.03-.8.19-.83.21-.89.22-.92.25-.96.25-1 .27-1.04.28-1.06.29-1.09.31-1.12.31-1.14.33-1.17.33-1.18.34-1.19.35-1.21.36-1.22.36-1.23.36-1.23.37-1.23.37-1.24.38-1.23.37-1.22.38-1.22.38-1.2.37-1.2.38-1.17.37-1.16.37-1.14.37-1.11.36-1.09.35-1.05.35-1.03.34-.99.34-.95.32-.92.32-.87.3-.83.3-.78.28-.73.27-.68.26-.8.3-.77.3-.75.28-.71.28-.68.26-.65.25-.62.24-.59.23-.57.22-.54.21-.52.2-.49.2-.46.18-.44.17-.42.17-.4.16-.37.15-.35.14-.33.13-.31.13-.29.12-.28.11-.25.11-.24.1-.22.1-.2.09-.19.08-.18.08-.16.08-.14.07-.13.07-.12.06-.11.06-.1.05-.09.05-.08.05-.07.05-.06.04-.05.04-.04.04-.04.04-.04.04-.03.03-.03.05-.03.04-.02.04-.02.05-.02.05-.02.05-.01.06-.01.06-.01.07v.06l-.01.08.01.07v.09l.01.08.01.1.02.1.01.1.03.11.02.12.03.12.03.13.04.14.04.15.04.15.05.16.05.17.06.18.06.19.06.2.07.2.07.22.08.22.08.24.08.25.09.25.1.27.1.28.06.19.07.18.07.19.07.18.06.19.07.18.07.18.06.19.07.18.07.18.06.18.06.18.07.17.06.18.06.17.06.17.06.16.06.17.06.16.06.16.05.15.05.15.06.15.1.28.05.14.04.13.05.12.04.13.04.11.04.11.04.11.04.1.03.09.03.09.03.08.03.08.02.07.03.06.02.05.02.06.02.07.03.07.03.08.03.08.03.09.03.1.04.1.04.11.04.11.09.24.04.13.05.13.05.14.05.14.05.15.06.15.05.15.06.15.06.16.05.17.06.16.06.17.06.17.07.18.06.17.06.18.07.18.06.18.06.18.07.19.06.18.07.19.06.18.07.19.07.19.06.19.07.19.06.18.07.19.07.2.07.2.08.2.07.21.08.21.08.21.07.22.08.22.08.22.08.22.09.23.08.22.08.23.08.23.09.23.08.23.09.23.08.23.08.23.09.23.08.23.08.22.08.23.08.22.08.22.08.22.08.21.08.22.08.21.07.2.08.21.07.19.07.2.07.19.07.18.06.18.07.17.06.17.06.16.05.17.06.16.05.16.06.16.06.17.06.16.05.16.06.16.06.17.06.16.06.16.05.15.06.16.06.16.05.15.06.15.06.15.05.15.06.14.05.14.05.14.06.14.05.13.05.13.05.13.04.12.05.12.05.12.04.11.04.11.04.1.04.1.04.09.04.09.03.08.03.08.03.07.03.07.03.06.02.05.02.06.03.06.02.06.03.06.02.07.03.06.02.07.03.07.03.07.02.07.03.08.03.07.03.08.03.07.02.08.03.08.03.08.03.08.03.08.03.08.03.09.03.08.03.08.03.08.02.09.03.08.03.08.03.08.03.09.03.08.02.08.03.08.03.08.02.08.03.07.02.08.03.08.02.07.03.07.02.08.09.29.09.3.09.28.09.28.09.27.09.27.08.26.09.26.08.25.09.24.08.24.08.24.08.23.08.23.08.22.08.22.08.22.08.21.08.21.08.21.08.2.07.21.08.2.08.19.08.2.08.19.08.19.08.19.08.19.08.19.08.19.08.19.09.18.08.19.09.19.08.19.09.18.09.19.08.19.09.19.03.06.03.05.03.06.03.05.03.05.03.05.03.06.03.05.02.05.03.05.03.05.03.04.02.05.03.05.03.04.02.05.03.04.03.04.02.04.02.04.03.04.02.03.03.04.02.03.02.03.02.03.02.03.02.02.02.03.02.02.02.02.01.02.02.02.02.01.01.01.01.02h.02l.01.01h.04l.02-.01.02-.01.02-.02.02-.01.03-.02.03-.02.04-.03.04-.03.04-.03.04-.03.05-.04.05-.04.05-.04.05-.04.06-.04.06-.05.06-.05.06-.05.07-.06.06-.05.07-.06.07-.06.08-.06.07-.06.07-.07.08-.06.08-.07.08-.07.08-.07.08-.07.08-.08.09-.07.08-.08.09-.07.08-.08.09-.08.09-.08.08-.08.35-.3.38-.32.4-.33.43-.33.46-.35.47-.36.51-.36.52-.37.54-.38.56-.39.58-.39.6-.39.61-.4.63-.4.64-.41.65-.4.66-.41.68-.41.68-.41.68-.41.7-.4.7-.41.7-.4.71-.4.7-.39.71-.39.71-.38.7-.38.7-.37.7-.36.69-.35.69-.34.67-.34.67-.32.66-.31.64-.3.64-.28.62-.28.6-.26.59-.24.06-.03.07-.03.07-.02.07-.03.07-.04.08-.03.08-.03.08-.04.09-.03.17-.07.09-.04.09-.04.1-.04.09-.04.1-.04.1-.04.09-.04.1-.04.1-.04.1-.05.11-.04.1-.04.1-.04.1-.05.1-.04.1-.04.11-.05.1-.04.1-.04.1-.05.1-.04.1-.04.09-.04.1-.04.09-.05.1-.04.09-.04.09-.04.09-.04.42-.18.43-.18.45-.19.45-.19.47-.2.48-.19.5-.2.5-.2.51-.2.53-.21.53-.2.55-.21.55-.21.57-.22.58-.21.58-.22.6-.22.6-.22.62-.22.62-.23.63-.22.64-.23.65-.23.66-.23.66-.23.68-.23.68-.24.69-.23.69-.24.7-.24.71-.24.72-.24.73-.24.73-.24.73-.24.74-.25.75-.24.76-.25.76-.24.76-.25.11-.03.13-.04.13-.04.15-.04.16-.05.17-.05.18-.05.18-.05.2-.06.21-.06.22-.06.22-.06.23-.06.24-.07.25-.07.25-.07.26-.07.27-.08.27-.07.28-.08.29-.07.29-.08.29-.08.3-.08.3-.09.31-.08.31-.08.31-.08.31-.09.32-.08.32-.08.32-.09.32-.08.33-.09.32-.08.32-.08.33-.09.32-.08.32-.08.32-.08.33-.09.32-.08.33-.09.33-.09.33-.08.33-.09.34-.09.33-.09.67-.17.33-.09.34-.09.33-.08.33-.09.33-.09.32-.08.33-.09.32-.08.31-.08.32-.09.31-.08.3-.08.3-.08.29-.07.29-.08.28-.07.28-.08.27-.07.26-.07.25-.06.25-.07.24-.06.23-.07.22-.05.21-.06.2-.06.19-.05.18-.05.17-.04.16-.05.15-.04.15-.04.16-.04.16-.05.16-.04.16-.04.17-.05.16-.04.16-.04.17-.05.16-.04.17-.04.16-.04.17-.05.16-.04.17-.04.16-.04.16-.04.16-.04.16-.04.16-.04.16-.03.15-.04.15-.04.15-.03.15-.04.14-.03.15-.03.13-.04.14-.03.13-.03.13-.02.12-.03.12-.03.11-.02.11-.02.11-.03.1-.02.09-.01.09-.02.55-.11.56-.11.55-.12.55-.11.56-.11.56-.12.55-.11.55-.12.55-.11.54-.12.54-.11.54-.11.52-.12.52-.11.52-.11.5-.1.49-.11.49-.11.47-.1.46-.1.44-.1.44-.09.41-.1.4-.09.39-.08.36-.09.35-.08.33-.08.31-.07.29-.07.27-.06.24-.06.23-.06.19-.05.18-.05.14-.04.12-.03.09-.03.07-.03.03-.02.02-.02.02-.04.02-.04.01-.05.01-.07.01-.07v-.09l.01-.09-.01-.11v-.12l-.01-.13-.01-.15-.01-.16-.02-.17-.02-.18-.03-.2-.02-.21-.04-.23-.03-.24-.04-.26-.04-.28-.05-.29-.05-.3-.05-.32-.06-.34-.06-.36-.07-.37-.07-.39-.07-.41-.08-.43-.08-.45-.09-.46-.09-.49-.1-.5-.1-.53-.1-.54-.11-.57-.12-.59-.11-.6-.13-.63-.03-.18-.03-.19-.04-.18-.03-.19-.03-.18-.04-.19-.03-.2-.03-.19-.04-.19-.03-.2-.04-.19-.03-.19-.03-.2-.04-.19-.03-.2-.03-.19-.03-.19-.03-.2-.04-.19-.03-.18-.03-.19-.03-.19-.03-.18-.03-.18-.02-.18-.03-.17-.03-.17-.02-.17-.03-.17-.02-.16-.03-.15-.02-.16-.02-.14-.02-.15-.02-.13-.02-.14-.02-.12-.01-.13-.02-.11-.01-.11-.02-.11-.01-.12-.02-.12-.01-.13-.02-.13-.02-.14-.03-.14-.02-.15-.02-.15-.03-.16-.02-.16-.03-.16-.03-.17-.03-.17-.03-.18-.03-.18-.03-.18-.04-.18-.03-.18-.03-.19-.04-.19-.03-.19-.04-.19-.04-.19-.04-.2-.03-.19-.04-.2-.04-.19-.04-.2-.04-.19-.04-.19-.04-.2-.04-.19-.05-.19-.04-.19-.04-.19-.04-.19-.04-.18-.04-.18-.05-.18-.04-.18-.04-.18-.03-.18-.04-.19-.04-.18-.04-.18-.04-.19-.04-.19-.04-.18-.04-.19-.04-.18-.04-.19-.04-.18-.04-.19-.04-.18-.03-.18-.04-.18-.04-.18-.03-.17-.04-.17-.03-.18-.04-.16-.03-.17-.03-.16-.03-.16-.03-.16-.03-.15-.03-.15-.03-.15-.02-.14-.03-.13-.02-.14-.02-.12-.02-.12-.02-.12-.02-.11-.01-.11-.02-.1-.01-.09-.01-.09-.01-.08-.02-.08-.01-.08-.02-.08-.01-.08-.02-.08-.02-.08-.02-.08-.02-.08-.02-.08-.02-.08-.02-.08-.02-.08-.02-.07-.02-.08-.02-.07-.03-.07-.02-.07-.02-.07-.03-.07-.02-.07-.03-.07-.02-.06-.03-.06-.02-.06-.03-.06-.02-.06-.03-.05-.03-.06-.02-.05-.03-.04-.03-.05-.02-.04-.03-.04-.02-.04-.03-.04-.03-.03-.02-.03-.03-.03-.03-.02-.07-.05-.09-.04-.11-.03-.14-.03-.16-.02-.19-.02-.2-.01-.23-.01h-.26l-.28.01Zm-23.02-108.54-.19.01-.2.02-.21.02-.24.03-.25.03-.27.03-.29.04-.31.04-.34.05-.35.06-.38.05-.41.07-.42.07-.46.07-.48.08-.51.08-.53.09-.57.09-.59.1-.63.11-.22.03-.22.04-.23.04-.23.03-.24.04-.24.04-.24.04-.25.04-.26.04-.25.04-.26.05-.26.04-.27.04-.26.04-.27.04-.27.05-.27.04-.27.04-.27.04-.27.05-.27.04-.26.04-.27.04-.27.04-.26.04-.27.04-.26.04-.25.04-.26.04-.25.04-.25.04-.24.03-.24.04-.23.04-.24.03-.22.03-.22.04-.21.03-.21.03-.2.03-.2.03-.21.03-.21.03-.22.04-.23.03-.23.04-.24.04-.25.04-.25.04-.26.04-.26.04-.26.05-.27.04-.28.05-.27.05-.28.04-.29.05-.28.05-.29.05-.28.05-.29.05-.29.05-.29.05-.29.05-.29.05-.29.05-.29.05-.29.05-.28.05-.28.05-.28.05-.28.05-.28.05-.27.05-.26.05-.27.05-.26.04-.25.05-.25.05-.24.04-.24.05-.25.04-.24.04-.26.05-.25.04-.25.05-.26.04-.26.05-.26.05-.26.04-.26.05-.27.05-.26.05-.26.04-.26.05-.26.05-.26.05-.26.04-.25.05-.26.05-.25.04-.25.05-.24.04-.25.05-.23.04-.24.04-.23.05-.22.04-.65.12-.21.03-.19.04-.2.03-.18.04-.18.03-.17.03-.16.03-.16.03-.14.03-.48.09-.49.09-.5.09-.5.09-.52.1-.52.1-.52.1-.54.1-.53.1-.55.1-.55.11-.55.11-.56.11-.56.1-.57.11-.57.12-.57.11-.58.11-.57.12-.58.11-.59.12-.58.11-.58.12-.58.11-.59.12-.58.12-.58.12-.59.11-.58.12-.57.12-.58.12-.57.12-.58.11-.56.12-.57.12-.56.11-.55.12-.55.11-.55.12-.54.11-.3.06-.29.06-.3.07-.29.06-.3.06-.29.06-.3.06-.29.06-.29.06-.29.06-.29.06-.28.06-.28.06-.28.06-.28.05-.27.06-.27.05-.26.06-.26.05-.25.05-.25.05-.25.05-.23.05-.24.05-.22.04-.22.04-.21.05-.21.04-.2.03-.19.04-.18.04-.17.03-.17.03-.15.03-.15.02-.14.03-.12.02-.12.02-.11.01-.09.02-.09.02-.1.01-.1.02-.11.02-.11.02-.11.03-.12.02-.12.03-.13.02-.13.03-.14.03-.13.02-.14.03-.15.03-.15.03-.15.04-.15.03-.15.03-.16.03-.15.04-.16.03-.17.04-.16.03-.16.04-.16.03-.17.04-.16.03-.17.04-.16.04-.17.03-.17.04-.16.04-.16.04-.17.03-.16.04-.16.04-.16.03-.15.04-.16.03-.15.04-.16.04-.16.03-.16.04-.16.04-.17.04-.17.04-.17.04-.18.04-.18.04-.18.04-.18.04-.19.04-.18.04-.19.05-.18.04-.19.04-.19.04-.19.05-.19.04-.18.04-.19.04-.19.04-.18.05-.19.04-.18.04-.18.04-.18.04-.18.04-.18.04-.17.03-.17.04-.17.04-.16.04-.16.03-.16.04-.15.03-.15.03-.15.03-.14.04-.13.02-.14.03-.13.03-.14.03-.13.03-.14.03-.14.03-.14.04-.14.03-.14.03-.14.03-.13.03-.14.03-.14.03-.14.03-.14.03-.13.03-.14.03-.13.03-.13.03-.13.03-.13.03-.13.03-.12.03-.13.02-.11.03-.12.03-.12.02-.11.03-.11.02-.1.03-.1.02-.1.03-.1.02-.09.02-.08.02-.09.02-.08.02-.07.02-.07.02-.06.01-.18.05-.18.04-.19.05-.2.05-.2.04-.21.06-.22.05-.23.05-.23.06-.24.05-.24.06-.26.06-.26.06-.26.07-.28.06-.27.06-.29.07-.29.07-.3.07-.3.07-.31.07-.32.07-.32.08-.33.07-.33.08-.34.08-.34.08-.36.08-.35.08-.36.08-.37.09-.37.08-.38.09-.38.09-.39.08-.39.09-.4.09-.4.1-.41.09-.41.09-.21.05-.21.04-.22.05-.22.05-.22.05-.23.06-.24.05-.23.05-.24.06-.25.05-.24.06-.25.06-.25.06-.25.05-.25.06-.25.06-.25.06-.26.06-.25.06-.25.06-.26.06-.25.05-.25.06-.24.06-.25.06-.25.06-.24.05-.24.06-.23.06-.24.05-.22.05-.23.06-.22.05-.22.05-.21.05-.2.05-.58.14-.19.04-.17.05-.18.04-.19.05-.18.04-.19.05-.18.05-.19.04-.18.05-.19.05-.19.04-.19.05-.18.04-.19.05-.18.04-.19.05-.18.04-.18.05-.19.04-.17.04-.18.05-.18.04-.17.04-.17.04-.16.04-.17.04-.16.04-.16.03-.15.04-.15.03-.14.04-.15.03-.13.03-.13.03-.13.03-.12.03-.12.02-.11.03-.11.02-.1.02-.09.02-.09.02-.09.02-.1.02-.09.02-.1.01-.1.02-.11.03-.1.02-.11.02-.11.02-.11.02-.11.03-.11.02-.12.02-.11.03-.12.02-.11.02-.35.08-.12.02-.12.02-.12.03-.11.02-.12.03-.12.02-.11.02-.11.03-.12.02-.11.02-.11.02-.11.03-.11.02-.1.02-.1.02-.11.02-.1.02-.09.01-.1.02-.09.02-.3.06-.28.06-.27.06-.25.06-.24.06-.23.06-.21.06-.2.06-.19.06-.17.06-.17.06-.15.07-.13.07-.13.07-.11.07-.11.08-.09.08-.08.09-.07.09-.06.09-.05.11-.04.11-.03.11-.01.12-.02.13v.14l.01.15.02.15.02.16.04.17.04.19.05.19.05.2.07.22.07.22.08.24.08.25.1.26.09.27.11.29.15.43.17.47.18.5.19.53.2.56.21.59.22.62.23.64.24.66.24.68.25.7.26.72.26.73.26.74.27.75.27.77.27.76.27.77.27.78.28.77.27.77.27.77.27.76.26.75.27.75.25.73.25.71.25.71.24.68.23.66.23.64.21.62.21.59.2.57.18.53.17.5.17.47.15.43.13.4.17.51.06.16.06.17.06.18.06.19.07.19.07.2.07.2.07.21.08.22.07.22.08.22.08.23.08.24.08.23.09.24.08.25.09.24.09.25.08.25.09.26.09.25.09.26.09.26.09.26.09.25.09.26.09.26.1.26.09.26.09.25.08.26.09.25.09.25.09.25.09.25.08.24.08.24.09.23.08.24.08.23.09.24.09.24.08.24.09.25.09.24.09.25.09.25.08.25.09.25.09.25.09.25.09.25.09.26.08.25.09.24.09.25.08.25.09.24.08.24.09.24.08.24.08.23.08.23.07.23.08.22.08.22.07.21.07.21.07.2.06.2.07.19.06.19.06.18.06.18.05.16.06.16.05.16.04.14.05.14.04.13.05.14.05.14.05.14.05.15.05.15.05.15.05.16.06.15.05.16.06.16.05.16.06.16.06.16.05.17.06.16.06.17.05.16.06.17.06.16.06.16.05.17.06.16.06.16.05.16.06.16.06.16.05.16.06.15.05.15.05.15.05.15.05.14.05.14.05.14.05.13.05.13.04.13.05.12.04.12.04.12.05.13.05.13.05.14.05.15.06.15.05.16.06.17.06.17.07.17.06.18.07.18.06.19.07.19.07.2.07.2.07.2.08.2.07.21.08.21.07.21.08.22.08.21.07.22.08.22.08.22.08.22.07.22.08.22.08.22.08.22.08.22.07.22.08.22.08.21.07.22.08.21.07.21.07.21.07.2.15.44.16.45.15.45.16.45.16.46.16.47.16.46.17.47.16.47.16.47.17.47.16.47.16.47.17.46.16.47.16.45.16.45.15.45.16.44.15.43.15.43.14.41.15.41.14.39.13.39.13.37.13.36.12.34.12.33.11.31.11.3.1.29.09.26.09.25.08.22.07.21.07.19.06.16.05.14.04.12.02.04.02.04.01.04.02.03.02.04.02.04.02.03.02.04.01.03.02.04.02.03.02.03.03.04.02.03.02.03.02.03.02.03.02.03.02.02.02.03.02.02.02.03.02.02.02.03.03.02.02.02.02.02.02.01.02.02.02.01.02.02.02.01.02.01.01.01.02.01.02.01h.02l.02.01h.08l.03-.01.05-.01.04-.01.05-.01.06-.01.06-.02.07-.02.07-.02.08-.02.08-.02.08-.03.09-.02.1-.03.09-.03.11-.03.1-.03.11-.04.12-.03.11-.04.12-.04.12-.04.13-.04.13-.04.13-.05.14-.04.13-.05.14-.04.14-.05.15-.05.14-.05.15-.05.15-.05.14-.05.16-.05.15-.06.15-.05.16-.05.15-.06.16-.05.15-.05.16-.05.16-.06.16-.05.15-.05.16-.06.16-.05.16-.05.15-.05.16-.05.16-.05.15-.06.15-.05.15-.05.15-.04.15-.05.14-.05.15-.05.14-.04.13-.05.14-.04.13-.04.13-.05.13-.04.12-.04.12-.03.11-.04.11-.03.11-.04.1-.03.1-.03.09-.03.09-.02.08-.03.08-.02.07-.02.07-.02.06-.02.06-.01.06-.01.06-.02.08-.02.08-.02.09-.02.09-.03.11-.03.11-.03.11-.03.13-.04.13-.03.13-.04.14-.04.15-.05.15-.04.15-.05.16-.04.17-.05.17-.05.17-.06.18-.05.18-.05.19-.06.18-.06.19-.05.2-.06.2-.06.2-.07.2-.06.2-.06.21-.06.21-.07.2-.06.22-.07.21-.07.21-.06.21-.07.22-.07.21-.06.21-.07.75-.23.71-.22.69-.21.66-.2.63-.19.6-.19.58-.17.55-.17.52-.16.5-.15.47-.15.46-.14.42-.12.41-.13.39-.11.36-.11.34-.1.33-.1.3-.09.29-.08.26-.08.25-.08.24-.06.22-.06.2-.06.19-.05.17-.05.17-.04.14-.04.14-.03.13-.03.11-.03.1-.02.1-.02.09-.01.07-.02h.07l.07-.01h.05l.05-.01H228.96l.05-.01.05-.01.06-.01.06-.01.07-.01.07-.01.08-.02.09-.02.09-.01.09-.02.1-.02.1-.03.1-.02.11-.02.12-.03.11-.03.13-.02.12-.03.13-.03.13-.03.13-.03.14-.04.13-.03.14-.04.15-.03.14-.04.15-.03.15-.04.15-.04.15-.04.15-.04.16-.04.15-.04.16-.04.16-.04.16-.04.15-.04.28-.08.28-.07.28-.08.28-.07.29-.08.29-.08.29-.07.3-.08.3-.08.3-.08.31-.08.32-.09.32-.08.33-.09.34-.08.34-.09.35-.09.36-.1.37-.09.37-.1.39-.1.39-.1.4-.1.42-.11.42-.11.44-.11.44-.11.46-.12.47-.12.48-.12.5-.13.51-.13.52-.13.53-.14.55-.14.57-.15.58-.14.59-.15.61-.16.63-.16.15-.04.15-.04.16-.04.16-.04.16-.04.16-.04.16-.04.16-.04.16-.04.16-.04.16-.04.16-.04.16-.04.16-.04.16-.03.16-.04.16-.04.15-.04.16-.04.15-.03.15-.04.15-.03.15-.04.14-.03.14-.04.14-.03.14-.03.14-.03.13-.03.12-.03.13-.03.12-.03.11-.02.11-.03.11-.02.11-.02.09-.02.1-.02.09-.02.08-.02.23-.04.25-.05.26-.06.29-.06.29-.06.32-.06.32-.07.34-.08.36-.08.36-.08.37-.08.39-.08.39-.09.4-.09.41-.1.41-.09.42-.1.43-.1.42-.09.43-.1.43-.1.44-.11.43-.1.43-.1.43-.1.43-.1.42-.1.42-.11.41-.09.41-.1.4-.1.4-.1.38-.09.38-.09.36-.09.35-.09.35-.09.32-.08.32-.08.3-.07.14-.04.15-.04.15-.04.16-.04.15-.04.16-.04.17-.04.16-.04.17-.04.17-.04.17-.04.17-.04.18-.04.17-.04.18-.04.17-.04.18-.04.18-.04.18-.04.17-.04.18-.03.17-.04.18-.04.17-.04.17-.03.17-.04.17-.03.17-.03.16-.04.17-.03.16-.03.15-.03.16-.03.15-.03.14-.03.14-.03.14-.02.14-.03.13-.02.12-.03.13-.02.13-.03.14-.02.14-.03.15-.02.15-.03.15-.03.15-.03.16-.03.16-.03.16-.03.17-.03.16-.03.17-.03.17-.03.17-.04.18-.03.17-.03.18-.04.17-.03.18-.04.17-.03.18-.03.17-.04.18-.03.17-.04.18-.03.17-.04.17-.03.17-.03.17-.04.17-.03.16-.03.17-.04.16-.03.15-.03.16-.03.15-.03.15-.03.29-.06.14-.03.16-.03.15-.03.16-.04.17-.03.17-.03.17-.04.17-.03.17-.03.18-.04.18-.04.18-.03.19-.04.18-.03.19-.04.18-.04.19-.03.19-.04.18-.04.19-.03.19-.04.19-.03.18-.04.19-.04.18-.03.19-.04.18-.03.18-.03.18-.04.17-.03.17-.03.17-.04.17-.03.16-.03.17-.03.15-.03.16-.02.14-.03.15-.03.26-.05.27-.04.28-.06.3-.05.31-.06.32-.06.34-.06.35-.06.36-.07.38-.07.38-.07.4-.07.41-.08.42-.07.44-.08.44-.08.46-.09.46-.08.48-.09.49-.09.5-.09.51-.1.51-.09.53-.1.54-.1.55-.1.55-.1.57-.11.57-.1.58-.11.59-.11.6-.11.61-.11.61-.12.63-.11.62-.12.64-.12.65-.12.65-.12.65-.12 4.11-.78-.13-1.29-.01-.06v-.06l-.01-.06v-.06l-.01-.06v-.07l-.01-.07-.01-.07-.01-.07-.01-.07-.01-.07v-.08l-.01-.08-.02-.07-.01-.08-.01-.08-.01-.08-.01-.08-.01-.08-.02-.08-.01-.08-.01-.09-.02-.08-.01-.08-.02-.08-.01-.09-.01-.08-.02-.08-.01-.08-.02-.08-.02-.09-.01-.08-.02-.08-.01-.07-.02-.08-.01-.08-.02-.07-.02-.08-.01-.07-.02-.07-.02-.08-.02-.08-.02-.08-.02-.09-.03-.09-.02-.09-.02-.1-.03-.11-.02-.1-.03-.11-.03-.12-.02-.11-.03-.12-.03-.12-.03-.13-.02-.12-.03-.13-.03-.13-.03-.14-.03-.13-.03-.14-.03-.13-.03-.14-.03-.14-.03-.14-.03-.14-.04-.14-.03-.15-.03-.14-.03-.14-.03-.14-.06-.29-.03-.14-.03-.14-.03-.14-.03-.13-.03-.14-.03-.14-.03-.13-.03-.13-.03-.14-.03-.13-.03-.14-.03-.14-.03-.14-.03-.14-.04-.13-.03-.14-.03-.14-.03-.14-.03-.14-.04-.14-.03-.14-.03-.13-.03-.14-.03-.14-.03-.13-.03-.13-.03-.13-.06-.26-.03-.12-.03-.12-.03-.12-.02-.12-.03-.11-.03-.12-.02-.11-.02-.1-.03-.1-.02-.1-.02-.1-.02-.09-.02-.08-.02-.09-.02-.07-.01-.08-.02-.07-.01-.06-.02-.06-.01-.07-.02-.07-.02-.07-.02-.08-.02-.08-.02-.08-.02-.08-.02-.09-.02-.09-.02-.09-.02-.1-.03-.09-.02-.1-.02-.1-.02-.1-.03-.1-.02-.1-.02-.11-.03-.1-.02-.11-.02-.11-.03-.11-.02-.1-.02-.11-.03-.11-.02-.11-.02-.11-.03-.11-.02-.11-.02-.11-.03-.1-.02-.11-.02-.11-.02-.1-.02-.1-.02-.11-.02-.1-.02-.1-.02-.1-.03-.09-.02-.1-.02-.11-.03-.1-.02-.1-.03-.11-.02-.11-.02-.11-.03-.11-.02-.11-.03-.11-.02-.11-.03-.12-.02-.11-.03-.11-.02-.12-.03-.11-.02-.11-.03-.11-.02-.12-.02-.11-.03-.11-.02-.11-.05-.21-.02-.11-.03-.1-.02-.11-.02-.1-.02-.1-.02-.1-.02-.09-.02-.09-.02-.09-.02-.09-.02-.09-.02-.08-.02-.08-.01-.07-.02-.08-.02-.07-.02-.08-.01-.08-.02-.09-.02-.09-.02-.09-.03-.1-.02-.09-.02-.11-.03-.1-.02-.11-.03-.11-.02-.12-.03-.12-.02-.11-.03-.13-.03-.12-.02-.12-.03-.13-.03-.13-.03-.13-.03-.13-.03-.13-.03-.13-.02-.14-.03-.13-.03-.13-.03-.14-.03-.13-.03-.14-.03-.13-.03-.14-.03-.13-.02-.14-.03-.13-.03-.13-.03-.13-.02-.13-.03-.13-.03-.13-.02-.12-.03-.13-.02-.14-.03-.14-.03-.15-.03-.15-.03-.15-.03-.16-.03-.16-.04-.17-.03-.16-.04-.18-.04-.17-.03-.18-.04-.18-.04-.18-.04-.18-.04-.18-.04-.19-.04-.19-.04-.19-.05-.18-.04-.19-.04-.19-.04-.19-.05-.19-.04-.19-.04-.19-.04-.19-.05-.19-.04-.18-.04-.19-.04-.18-.05-.18-.04-.18-.04-.17-.04-.18-.04-.17-.04-.16-.04-.17-.04-.16-.03-.17-.04-.17-.04-.18-.05-.19-.04-.2-.04-.19-.05-.21-.05-.21-.04-.21-.1-.44-.1-.45-.06-.23-.05-.23-.05-.24-.06-.24-.05-.23-.05-.25-.06-.24-.05-.24-.06-.24-.05-.25-.06-.24-.05-.24-.06-.24-.05-.25-.05-.24-.06-.23-.05-.24-.05-.24-.05-.23-.06-.23-.05-.22-.05-.23-.04-.22-.05-.21-.05-.21-.05-.21-.04-.2-.05-.21-.04-.2-.05-.21-.04-.21-.05-.2-.05-.21-.04-.21-.05-.2-.05-.21-.04-.2-.05-.2-.04-.2-.05-.2-.04-.2-.05-.19-.04-.19-.05-.19-.04-.19-.04-.18-.04-.18-.04-.18-.05-.17-.03-.17-.04-.16-.04-.16-.04-.16-.03-.15-.04-.14-.03-.14-.04-.13-.03-.13-.03-.12-.03-.11-.02-.11-.03-.1-.02-.1-.03-.09-.02-.08-.02-.07-.02-.07-.01-.07-.02-.07-.02-.08-.02-.08-.01-.08-.02-.09-.02-.08-.02-.09-.02-.09-.02-.09-.02-.1-.02-.09-.02-.1-.02-.09-.02-.1-.03-.1-.02-.1-.02-.1-.02-.1-.02-.1-.02-.1-.02-.1-.02-.1-.02-.1-.02-.1-.02-.1-.02-.1-.02-.1-.02-.1-.02-.09-.02-.1-.02-.09-.02-.1-.02-.09-.02-.09-.02-.08-.01-.09-.02-.09-.02-.08-.01-.08-.02-.09-.02-.09-.02-.09-.02-.1-.02-.11-.02-.1-.02-.11-.03-.11-.02-.12-.03-.12-.02-.12-.03-.12-.02-.13-.03-.12-.03-.13-.03-.13-.02-.14-.03-.13-.03-.14-.03-.13-.03-.14-.03-.14-.03-.14-.03-.14-.03-.14-.03-.14-.03-.14-.03-.14-.03-.13-.03-.14-.04-.14-.03-.14-.03-.14-.03-.13-.03-.14-.03-.13-.03-.13-.03-.13-.03-.13-.03-.12-.03-.13-.03-.12-.04-.13-.03-.14-.03-.13-.04-.13-.03-.14-.03-.14-.03-.13-.04-.14-.03-.14-.03-.14-.03-.14-.03-.13-.04-.14-.03-.14-.03-.14-.03-.13-.03-.14-.03-.13-.03-.14-.03-.13-.02-.13-.03-.13-.03-.13-.03-.12-.02-.12-.03-.12-.02-.12-.03-.12-.02-.11-.02-.11-.03-.1-.02-.11-.02-.09-.02-.1-.01-.09-.02-.09-.02-.08-.01-.08-.02-.09-.01-.09-.02-.1-.02-.1-.02-.1-.02-.1-.02-.11-.02-.11-.02-.12-.02-.11-.03-.12-.02-.12-.02-.13-.03-.12-.03-.13-.02-.13-.03-.13-.03-.13-.03-.14-.02-.13-.03-.14-.03-.14-.03-.13-.03-.14-.03-.14-.03-.14-.03-.14-.03-.13-.03-.14-.03-.14-.03-.14-.04-.13-.03-.14-.03-.13-.03-.14-.03-.13-.03-.13-.03-.13-.03-.13-.02-.12-.03-.13-.02-.12-.03-.13-.03-.13-.03-.13-.02-.13-.03-.13-.03-.13-.03-.13-.02-.13-.03-.14-.03-.13-.02-.13-.03-.13-.03-.13-.05-.25-.03-.13-.05-.24-.08-.36-.07-.34-.02-.11-.04-.21-.02-.1-.02-.09-.02-.09-.02-.09-.02-.09-.02-.08-.01-.08-.02-.07-.01-.07-.02-.06-.01-.06-.01-.07-.01-.06-.01-.06-.01-.07-.01-.06-.02-.07-.01-.06-.02-.07-.01-.06-.02-.07-.01-.07-.02-.06-.01-.07-.02-.06-.02-.07-.01-.06-.02-.07-.02-.06-.02-.07-.01-.06-.02-.06-.02-.06-.02-.06-.02-.06-.02-.06-.01-.06-.02-.05-.02-.06-.02-.05-.02-.06-.02-.05-.01-.05-.02-.04-.02-.05-.02-.04-.01-.05-.02-.04-.02-.04-.01-.03-.04-.07-.03-.06-.04-.06-.03-.06-.04-.05-.05-.05-.04-.04-.05-.04-.06-.04-.06-.03-.07-.03-.07-.03-.09-.02-.09-.02-.11-.01-.11-.01-.13-.01H295.54l-.16.01Z" id="a"/> </defs>
<use xlink:href="#a" fill="#FE4040"/><use xlink:href="#a" fill-opacity="0" stroke="#000" stroke-opacity="0"/></svg>